
      <svg width="400" height="225" xmlns="http://www.w3.org/2000/svg">
        <rect width="400" height="225" fill="black"/>
        <text x="10" y="30" fill="white" font-size="36" font-family="Arial">lychee</text>
        <text x="10" y="50" fill="white" font-size="18" font-family="Arial">Poison Dart Frog</text>
        <text x="10" y="70" fill="white" font-size="16" font-family="Arial">Dendrobates tinctorius</text>
        <text x="10" y="90" fill="white" font-size="16" font-family="Arial">Acq Date: 2024-05-22</text>
        <text x="10" y="110" fill="white" font-size="16" font-family="Arial">Female</text>
        <g transform="scale(0.3)">
          <g transform="translate(-60, 500)">
            <svg xmlns="http://www.w3.org/2000/svg" viewBox="0 0 35 35" shape-rendering="crispEdges"><path fill="#ffffff" d="M0 0h35v35H0z"/><path stroke="#000000" d="M1 1.5h7m2 0h2m2 0h1m3 0h4m2 0h1m2 0h7M1 2.5h1m5 0h1m2 0h1m1 0h7m4 0h1m3 0h1m5 0h1M1 3.5h1m1 0h3m1 0h1m1 0h1m1 0h2m1 0h1m1 0h1m1 0h6m1 0h1m1 0h1m1 0h3m1 0h1M1 4.5h1m1 0h3m1 0h1m1 0h1m1 0h1m1 0h1m1 0h1m1 0h1m2 0h2m1 0h3m1 0h1m1 0h3m1 0h1M1 5.5h1m1 0h3m1 0h1m1 0h1m3 0h2m1 0h1m1 0h2m4 0h1m2 0h1m1 0h3m1 0h1M1 6.5h1m5 0h1m1 0h1m1 0h2m1 0h5m2 0h1m3 0h1m1 0h1m5 0h1M1 7.5h7m1 0h1m1 0h1m1 0h1m1 0h1m1 0h1m1 0h1m1 0h1m1 0h1m1 0h1m1 0h7M9 8.5h2m1 0h2m1 0h2m5 0h4M1 9.5h1m1 0h5m4 0h1m2 0h2m1 0h1m4 0h1m1 0h1m1 0h5M5 10.5h1m2 0h3m4 0h1m1 0h1m2 0h1m1 0h1m1 0h1m2 0h2m1 0h4M2 11.5h2m2 0h4m6 0h2m1 0h1m1 0h1m1 0h1m5 0h1m1 0h2M2 12.5h5m4 0h1m3 0h1m6 0h3m1 0h1m2 0h4M5 13.5h1m1 0h2m2 0h1m7 0h1m2 0h1m3 0h1m1 0h3m2 0h1M1 14.5h1m2 0h2m2 0h1m2 0h2m2 0h3m3 0h1m2 0h1m1 0h2m3 0h3M1 15.5h4m2 0h1m3 0h1m1 0h2m3 0h3m1 0h1m2 0h4m1 0h1m1 0h1M2 16.5h2m6 0h2m3 0h1m1 0h1m1 0h6m1 0h2m2 0h2M2 17.5h3m2 0h3m1 0h2m1 0h2m2 0h1m1 0h1m2 0h1m2 0h1m1 0h2m3 0h1M3 18.5h1m1 0h1m2 0h2m1 0h1m1 0h1m3 0h5m1 0h2m2 0h2m1 0h2m1 0h1M1 19.5h1m2 0h4m1 0h2m1 0h1m3 0h3m2 0h1m1 0h1m1 0h1m2 0h2m1 0h2M1 20.5h3m1 0h1m3 0h1m1 0h4m1 0h1m1 0h2m4 0h1m2 0h7M3 21.5h1m3 0h2m1 0h1m3 0h1m2 0h1m2 0h7m1 0h3m1 0h2M1 22.5h1m1 0h2m1 0h1m5 0h2m1 0h2m2 0h1m2 0h1m1 0h1m1 0h2m2 0h1m2 0h1M1 23.5h1m2 0h2m1 0h1m1 0h1m5 0h4m2 0h2m3 0h1m2 0h2m1 0h1M1 24.5h1m2 0h3m1 0h1m1 0h1m1 0h2m2 0h1m5 0h1m1 0h1m1 0h1m2 0h3m1 0h1M1 25.5h1m1 0h2m2 0h1m1 0h1m1 0h1m2 0h3m1 0h2m3 0h7m2 0h2M9 26.5h1m2 0h1m4 0h1m1 0h4m2 0h1m3 0h1m1 0h1m1 0h1M1 27.5h7m2 0h1m1 0h1m1 0h4m1 0h1m2 0h1m1 0h2m1 0h1m1 0h1m1 0h2M1 28.5h1m5 0h1m1 0h3m3 0h1m1 0h1m3 0h3m1 0h1m3 0h3M1 29.5h1m1 0h3m1 0h1m1 0h2m3 0h1m1 0h1m2 0h1m2 0h1m2 0h6M1 30.5h1m1 0h3m1 0h1m1 0h3m1 0h6m2 0h3m2 0h1m2 0h2m2 0h1M1 31.5h1m1 0h3m1 0h1m1 0h1m2 0h4m2 0h1m1 0h1m1 0h3m2 0h2M1 32.5h1m5 0h1m2 0h5m2 0h1m2 0h7m2 0h3M1 33.5h7m1 0h3m2 0h2m1 0h2m1 0h1m2 0h3m2 0h1m1 0h3"/></svg>

          </g>
        </g>
        <text x="85" y="165" fill="white" font-size="12" font-family="Arial">Scan to see</text>
        <text x="85" y="180" fill="white" font-size="12" font-family="Arial">more detailed</text>
        <text x="85" y="195" fill="white" font-size="12" font-family="Arial">information about</text>
        <text x="85" y="210" fill="white" font-size="12" font-family="Arial">this species.</text>
        <g transform="translate(213.72893258426967, 0) scale(0.21067415730337077)">
          <svg xmlns="http://www.w3.org/2000/svg" width="819" height="1068" viewBox="0 0 819 1068" version="1.1"><path d="M 24.706 77.627 C 24.391 77.942, 24.538 79.167, 25.033 80.350 C 26.512 83.889, 28.367 91.405, 28.113 92.830 C 27.982 93.562, 28.563 95.211, 29.404 96.494 L 30.933 98.827 29.287 102.164 C 28.382 103.999, 26.822 106.088, 25.821 106.807 L 24 108.113 24 109.716 C 24 110.597, 25.812 113.719, 28.028 116.653 L 32.055 121.988 35.778 123.908 L 39.500 125.828 43.300 130.414 L 47.100 135 49.800 134.985 C 51.285 134.976, 53.147 134.560, 53.937 134.060 L 55.375 133.150 58.937 134.984 C 60.897 135.992, 63.850 138.264, 65.500 140.033 L 68.500 143.249 75.472 146.624 L 82.444 150 84.972 150.006 C 89.402 150.015, 94.443 151.877, 102.555 156.500 L 110.452 161 114.191 161 C 119.110 161, 126.917 158.336, 129.806 155.672 L 132.113 153.545 135.826 153.545 L 139.540 153.545 144.020 158.515 C 154.886 170.569, 160.674 176.297, 163 177.302 L 165.500 178.381 173.286 178.440 L 181.071 178.500 181.786 179.608 L 182.500 180.715 190.358 182.450 L 198.216 184.184 199.308 183.092 C 199.909 182.491, 201.380 182, 202.578 182 L 204.755 182 205.966 183.459 L 207.177 184.918 204.588 185.567 C 201.237 186.408, 201.312 187.593, 204.832 189.413 L 207.664 190.878 214.332 198.493 L 221 206.108 221 208.085 L 221 210.063 219.500 210.638 L 218 211.214 218.033 212.857 C 218.072 214.786, 220.358 217.630, 224.385 220.759 L 227.270 223 230.135 223 L 233 223 233 221.927 L 233 220.855 235.635 222.927 L 238.270 225 240.242 225 L 242.214 225 241.649 226.472 L 241.084 227.944 242.160 231.028 L 243.235 234.112 245.574 233.806 L 247.914 233.500 249.286 235.377 L 250.658 237.253 252.763 236.127 L 254.869 235 258.934 235 L 263 235 263 236.389 C 263 237.153, 263.900 238.841, 265 240.139 L 267 242.500 268.918 240.240 L 270.837 237.980 271.493 241.240 C 272.562 246.549, 273.088 248, 273.947 248 C 274.393 248, 277.286 246.843, 280.376 245.428 L 285.993 242.856 285.078 241.178 C 284.575 240.255, 283.209 238.488, 282.043 237.250 L 279.922 235 281.020 235 C 281.623 235, 283.866 233.595, 286.003 231.878 L 289.888 228.755 292.694 229.452 C 294.237 229.835, 296.504 231.085, 297.730 232.230 L 299.960 234.311 299.355 236.721 L 298.751 239.130 301.228 241.815 L 303.706 244.500 304.990 249.276 C 305.697 251.902, 306.580 254.240, 306.954 254.471 C 307.327 254.702, 307.717 259.753, 307.819 265.696 C 307.922 271.638, 308.269 277.753, 308.590 279.285 L 309.174 282.071 305.587 285.356 L 302 288.642 302 290.241 L 302 291.839 297.064 293.479 L 292.127 295.118 291.715 296.309 C 291.489 296.964, 291.777 298.556, 292.356 299.846 L 293.408 302.192 291.704 303.146 L 290 304.099 290 306.014 L 290 307.928 283.750 309.774 L 277.500 311.619 277.429 315.305 L 277.357 318.991 275.179 321.310 C 273.980 322.585, 273 324.281, 273 325.077 L 273 326.526 270.750 327.513 L 268.500 328.500 268.708 333.500 C 269.027 341.154, 269.326 342.329, 271.733 345.388 L 273.965 348.226 276.483 347.594 L 279 346.962 279 348.359 C 279 349.127, 278.325 350.315, 277.500 351 C 276.675 351.685, 276 352.693, 276 353.240 C 276 353.788, 274.763 355.741, 273.250 357.581 C 271.738 359.421, 269.411 362.344, 268.080 364.076 L 265.660 367.226 266.864 369.154 L 268.068 371.081 267.448 372.085 L 266.828 373.088 268.455 375.572 L 270.083 378.056 269.483 379.028 C 269.152 379.563, 268.234 380, 267.441 380 C 264.819 380, 265.942 381.774, 270.250 384.437 C 279.678 390.265, 288.676 398.823, 292.393 405.500 C 293.312 407.150, 296.103 411.425, 298.595 415 C 301.088 418.575, 304.702 424.757, 306.628 428.738 C 308.553 432.719, 310.887 436.544, 311.814 437.238 C 314.694 439.394, 316.138 441.767, 316.659 445.198 L 317.160 448.500 321.424 454 L 325.689 459.500 326.297 463.343 L 326.904 467.186 329.320 470.353 C 330.649 472.096, 333.033 474.187, 334.618 475.001 C 336.203 475.815, 339.940 478.011, 342.922 479.881 C 349.123 483.770, 358.221 488.018, 365.500 490.424 L 370.500 492.076 378 497.211 L 385.500 502.346 390.500 508.389 L 395.500 514.432 396.790 517.966 C 397.499 519.910, 398.703 524.425, 399.466 528 L 400.852 534.500 401.385 546.162 L 401.917 557.824 400.459 559.034 C 399.656 559.700, 399 561.090, 399 562.122 L 399 564 400.393 564 L 401.786 564 402.393 565.582 C 402.727 566.452, 403 569.085, 403 571.433 C 403 573.781, 403.497 577.128, 404.105 578.872 L 405.210 582.042 403.970 583.536 L 402.730 585.030 403.881 592.265 L 405.032 599.500 403.516 607.338 C 402.682 611.649, 402 616.656, 402 618.466 L 402 621.755 403.623 623.102 L 405.246 624.449 404.616 631.226 L 403.986 638.004 404.953 639.752 C 407.514 644.378, 412.001 656.094, 412.006 658.168 C 412.009 659.450, 412.493 662.236, 413.082 664.358 L 414.153 668.215 413.019 670.953 C 412.396 672.459, 411.738 676.573, 411.557 680.095 C 411.376 683.618, 410.725 689.564, 410.110 693.309 L 408.991 700.118 409.617 702.610 L 410.242 705.102 408.487 706.386 L 406.732 707.669 408.116 710.238 C 408.877 711.652, 411.847 716.294, 414.716 720.555 L 419.931 728.302 419.231 729.401 C 418.846 730.006, 418.486 730.725, 418.432 731 C 418.377 731.275, 417.794 732.804, 417.135 734.398 L 415.937 737.295 417.545 742.135 L 419.152 746.975 421.676 748.959 L 424.199 750.944 422.599 752.544 C 420.634 754.508, 420.633 754.708, 422.539 760.110 L 424.078 764.472 426.726 767.236 C 429.692 770.332, 431.504 770.734, 432.366 768.489 C 433.068 766.659, 432.069 761.161, 430.904 760.440 L 430.066 759.922 430.658 756.961 L 431.250 754 430.156 754 L 429.063 754 429.596 752.610 L 430.130 751.220 432.564 751.360 L 434.999 751.500 434.999 753.643 L 435 755.786 436.609 756.404 L 438.219 757.021 437.579 760.433 L 436.939 763.844 437.973 764.483 L 439.007 765.123 438.356 767.717 L 437.705 770.311 439.255 771.445 C 440.108 772.068, 440.962 773.640, 441.153 774.937 L 441.500 777.296 443.500 778.398 C 447.261 780.471, 447.776 782.081, 445.427 784.430 L 443.854 786.003 444.204 787.752 L 444.555 789.500 447.358 789.454 L 450.162 789.409 448.390 790.704 C 447.415 791.417, 446.029 792, 445.309 792 L 444 792 444 793.300 C 444 794.015, 444.540 795.140, 445.200 795.800 L 446.400 797 445.346 797 C 444.766 797, 443.078 795.875, 441.595 794.500 C 438.372 791.513, 436.569 791.349, 434.796 793.881 C 434.072 794.915, 432.584 795.934, 431.490 796.144 L 429.500 796.527 429.500 799.014 L 429.500 801.500 432 801.565 C 433.375 801.601, 435.483 802.163, 436.684 802.815 C 437.886 803.467, 439.991 804, 441.363 804 L 443.857 804 445.429 805.571 C 447.212 807.354, 447.486 809, 446 809 C 445.450 809, 445 809.592, 445 810.315 L 445 811.630 448.317 813.211 L 451.633 814.793 454.317 814.280 L 457 813.767 457 814.820 L 457 815.873 453.827 816.187 L 450.654 816.500 450.243 817.751 L 449.833 819.002 452.166 819.938 L 454.500 820.873 453 820.935 C 452.175 820.970, 450.207 819.886, 448.628 818.527 C 447.048 817.169, 444.910 815.789, 443.878 815.461 C 442.845 815.133, 442 814.446, 442 813.933 C 442 813.420, 441.373 813, 440.607 813 L 439.214 813 438.614 814.563 L 438.014 816.127 439.533 819.063 C 441.296 822.473, 441.733 822.575, 444.943 820.327 L 447.332 818.654 446.659 819.743 L 445.986 820.832 446.968 823.416 L 447.950 826 447.021 828.445 L 446.091 830.891 447.950 833.187 L 449.809 835.483 451.884 833.605 L 453.958 831.728 454.586 833.364 L 455.214 835 457.107 835 L 459 835 459 833.423 L 459 831.847 461.289 834.673 C 462.548 836.228, 464.113 838.737, 464.767 840.250 C 465.422 841.762, 466.385 843, 466.909 843 C 467.433 843, 468.005 844.010, 468.180 845.244 L 468.500 847.487 471.172 847.994 L 473.844 848.500 475.995 851.250 C 478.529 854.491, 479.799 854.710, 480.782 852.077 L 481.500 850.155 483 851.344 C 483.825 851.998, 485.339 853.518, 486.365 854.722 L 488.230 856.912 484.513 856.308 L 480.797 855.705 481.159 857.603 L 481.520 859.500 483.815 859.827 L 486.110 860.154 487.403 859.080 L 488.696 858.007 490.298 859.776 L 491.899 861.546 491.015 862.975 C 490.530 863.761, 490.354 864.763, 490.625 865.202 L 491.118 866 497 866 L 502.882 866 503.510 864.984 L 504.138 863.967 505.103 864.563 L 506.067 865.159 503.534 867.152 C 500.647 869.423, 500.268 871.505, 502.582 872.393 C 504.609 873.171, 511.484 873.183, 512.257 872.410 C 512.582 872.085, 512.198 869.979, 511.404 867.729 L 509.961 863.639 510.981 862.619 C 511.541 862.059, 512 861.940, 512 862.357 C 512 862.773, 513.350 862.316, 515 861.341 C 516.650 860.366, 518 859.316, 518 859.008 C 518 858.700, 519.688 858.586, 521.750 858.755 L 525.500 859.063 527 858.066 L 528.500 857.069 525 854.070 C 523.075 852.421, 520.723 850.803, 519.772 850.476 L 518.045 849.879 518.272 847.693 L 518.500 845.506 516.250 845.184 L 514 844.861 514 843.553 C 514 842.833, 514.675 841.685, 515.500 841 C 516.325 840.315, 517 838.910, 517 837.878 L 517 836 519.031 836 L 521.063 836 521.625 834.535 L 522.187 833.071 520.073 830.102 L 517.958 827.133 520.479 824.612 C 521.866 823.225, 523 821.626, 523 821.058 C 523 820.490, 524.800 818.889, 527 817.500 L 531 814.975 531 813.487 L 531 812 529.941 812 L 528.882 812 529.399 811.163 C 529.684 810.703, 529.235 809.353, 528.402 808.163 L 526.887 806 521.735 806 L 516.583 806 511.791 800.976 L 507 795.953 507 792.112 L 507 788.272 511.283 786.636 C 513.639 785.736, 516.063 785, 516.668 785 C 517.274 785, 518.497 783.891, 519.385 782.535 L 521 780.070 521 776.758 L 521 773.445 519.477 771.270 L 517.953 769.095 519.977 768.012 C 521.090 767.417, 522 766.343, 522 765.625 L 522 764.321 519.398 763.136 L 516.796 761.950 518.051 760.439 L 519.305 758.928 516.871 756.214 C 513.538 752.498, 508 744.385, 508 743.218 L 508 742.263 513.750 743.616 C 519.742 745.026, 529.690 745.440, 532.418 744.393 L 534 743.786 534 742.393 C 534 741.627, 533.033 740.033, 531.852 738.852 L 529.704 736.704 530.852 734.865 C 531.483 733.854, 532 732.372, 532 731.570 L 532 730.113 529.885 728.632 C 527.552 726.998, 523.567 721, 524.815 721 C 525.247 721, 526.028 721.403, 526.550 721.895 C 527.072 722.387, 529.617 723.228, 532.204 723.764 L 536.907 724.738 544.704 723.453 C 561.201 720.735, 569.799 717.751, 570.115 714.635 C 570.393 711.905, 570.588 711.368, 572.164 709 C 573.079 707.625, 574.381 704.608, 575.058 702.295 L 576.289 698.091 574.625 695.551 L 572.961 693.010 569.626 691.617 L 566.291 690.224 565.649 686.210 L 565.008 682.195 559.548 679.114 L 554.088 676.032 552.939 673.886 L 551.790 671.740 554.118 673.370 L 556.445 675 559.851 675 L 563.257 675 568.584 678.048 L 573.912 681.097 578.706 681.099 C 589.663 681.104, 591.579 680.964, 594.721 679.927 L 598.014 678.840 601.183 674.235 C 602.926 671.701, 605.622 667.005, 607.176 663.798 L 610 657.968 610 652.528 L 610 647.089 612.414 643.531 L 614.829 639.973 615.490 636.062 L 616.150 632.150 618.053 634.053 L 619.955 635.955 619.307 637.727 C 618.952 638.702, 617.188 641.830, 615.389 644.677 L 612.119 649.854 613.385 650.904 L 614.651 651.955 617.761 648.728 L 620.871 645.500 623.935 639 C 625.620 635.425, 626.999 631.915, 626.999 631.200 C 627.001 628.966, 630.164 623.659, 632.669 621.688 L 635.066 619.803 637.624 614.755 L 640.182 609.707 639.706 606.104 C 639.444 604.122, 638.405 600.393, 637.397 597.818 L 635.565 593.136 637.371 589.349 L 639.177 585.562 637.088 583.870 C 634.412 581.704, 634.452 581.001, 637.250 580.994 L 639.500 580.988 644.343 575.538 L 649.185 570.089 653.408 568.044 L 657.631 566 660.978 566 L 664.324 566 668.545 563.527 C 670.866 562.166, 673.041 560.335, 673.378 559.457 L 673.990 557.862 680.581 558.101 L 687.172 558.340 687.965 557.057 L 688.758 555.774 689.141 556.924 L 689.524 558.073 695.238 557.402 L 700.951 556.730 701.463 555.115 L 701.976 553.500 706.612 550.699 L 711.249 547.899 710.727 543.270 L 710.205 538.641 713.054 535.792 C 714.620 534.226, 717.328 530.048, 719.071 526.508 L 722.239 520.071 721.579 514.785 L 720.918 509.499 723.459 506.055 L 726 502.611 726 497.820 C 726 495.185, 726.548 490.981, 727.217 488.477 L 728.435 483.926 727.315 482.133 L 726.195 480.340 725.902 472.920 C 725.741 468.839, 725.176 464.489, 724.646 463.253 L 723.682 461.006 725.277 457.753 C 726.155 455.964, 727.156 453.600, 727.504 452.500 L 728.134 450.500 729.117 452.250 C 729.657 453.213, 730.714 454, 731.466 454 L 732.832 454 735.916 450.106 L 739 446.212 739 444.073 C 739 442.896, 740.133 439.698, 741.517 436.967 L 744.034 432 745.789 432 L 747.544 432 751.293 428.910 C 753.355 427.211, 755.754 424.442, 756.625 422.757 C 757.496 421.073, 759.482 418.624, 761.038 417.315 L 763.866 414.935 764.871 411.717 C 765.423 409.948, 766.361 405.209, 766.956 401.187 L 768.038 393.874 766.006 389.280 C 764.888 386.753, 763.692 382.926, 763.348 380.775 L 762.723 376.864 760.608 375.479 L 758.493 374.093 751.317 374.226 L 744.141 374.359 740.110 371.692 C 737.893 370.225, 733.024 366.418, 729.290 363.233 C 725.555 360.047, 721.231 356.465, 719.679 355.271 L 716.858 353.101 711.299 351.485 L 705.739 349.868 701.885 350.519 L 698.030 351.171 690.265 348.908 C 685.994 347.664, 681.612 346.051, 680.527 345.323 L 678.555 344 674.973 344 L 671.392 344 666.946 346.803 C 664.501 348.344, 661.943 349.943, 661.261 350.355 L 660.023 351.104 660.667 349.302 C 661.021 348.311, 661.710 346.981, 662.198 346.346 L 663.086 345.191 662.458 342.690 C 662.113 341.315, 660.767 339.190, 659.466 337.968 L 657.102 335.747 655.430 336.389 L 653.758 337.030 647.129 333.885 C 643.483 332.155, 637.585 329.900, 634.021 328.875 L 627.543 327.010 625.770 327.573 C 624.795 327.882, 623.523 329.022, 622.944 330.105 L 621.889 332.076 622.512 334.038 L 623.135 336 621.018 336 C 617.800 336, 613.467 338.591, 610.599 342.230 L 608.022 345.500 608.011 342.719 L 608 339.937 606.323 339.294 L 604.646 338.650 606.573 337.895 C 607.633 337.480, 609.893 337.109, 611.595 337.070 L 614.690 337 616.440 335.066 C 618.407 332.892, 620.890 326.534, 620.956 323.500 L 620.999 321.500 609.249 321.500 L 597.500 321.500 596.250 322.309 L 595 323.118 595 329.500 L 595 335.882 596.163 336.601 C 596.802 336.996, 598.715 337.651, 600.413 338.057 L 603.500 338.795 601 338.883 C 599.625 338.931, 597.394 338.411, 596.043 337.727 L 593.586 336.484 593.007 334.028 L 592.427 331.573 589.964 330.886 L 587.500 330.199 588.867 330.100 L 590.233 330 589.700 327.962 L 589.167 325.924 593.834 321.548 L 598.500 317.172 601.782 311.735 L 605.064 306.298 604.061 303.660 C 603.509 302.209, 601.062 299.104, 598.623 296.761 L 594.189 292.500 592.469 286.500 C 591.523 283.200, 590.119 279.262, 589.349 277.750 L 587.949 275 586.724 274.992 C 586.051 274.987, 583.076 272.713, 580.114 269.937 L 574.727 264.891 569.027 262.014 L 563.327 259.136 557.293 258.454 L 551.260 257.771 550.561 258.902 L 549.862 260.033 548.719 259.326 C 548.090 258.938, 545.997 258.726, 544.068 258.856 L 540.561 259.092 539.942 260.093 L 539.323 261.095 538.039 259.547 L 536.755 258 532.916 258 L 529.078 258 523.789 253.699 C 520.880 251.333, 517.726 249.102, 516.780 248.741 L 515.060 248.086 514.403 245.293 L 513.746 242.500 510.695 239.269 L 507.644 236.038 504.072 234.886 C 502.107 234.253, 499.647 232.843, 498.605 231.754 L 496.710 229.773 492.605 230.276 C 490.347 230.553, 487.698 231.108, 486.717 231.509 L 484.934 232.239 486.205 229.370 C 486.904 227.791, 488.101 226.014, 488.864 225.421 L 490.253 224.342 489.167 222.312 L 488.081 220.283 483.551 219.014 L 479.021 217.746 476.098 218.330 L 473.174 218.915 471.965 217.458 C 471.299 216.656, 470.135 216, 469.378 216 L 468 216 468 214.691 C 468 213.971, 467.392 212.551, 466.649 211.535 L 465.298 209.687 462.399 209.799 C 460.805 209.861, 455.450 211.251, 450.500 212.889 L 441.500 215.868 435.618 212.844 L 429.735 209.820 425.618 210.352 C 423.353 210.645, 418.941 211.189, 415.813 211.561 L 410.125 212.237 410.675 210.135 C 410.977 208.978, 410.955 206.957, 410.625 205.643 L 410.025 203.253 406.962 201.984 L 403.898 200.715 396.287 201.359 L 388.676 202.002 383.422 204.407 L 378.169 206.812 376.414 209.490 L 374.659 212.169 375.830 215.405 C 376.473 217.186, 377 219.553, 377 220.666 L 377 222.690 375.209 224.311 L 373.418 225.932 371.645 222.639 L 369.872 219.347 372.485 214.432 L 375.098 209.518 374.656 206.509 C 374.412 204.854, 373.892 202.713, 373.499 201.750 L 372.786 200 374.238 200 C 376.149 200, 379 196.791, 379 194.640 L 379 192.937 377.498 192.361 C 375.121 191.449, 372.054 192.604, 363.847 197.503 L 356.194 202.071 351.016 202.685 L 345.837 203.298 344.943 205.649 C 344.452 206.942, 343.558 208, 342.957 208 L 341.865 208 342.502 205.995 L 343.138 203.990 341.741 203.454 L 340.345 202.918 337.812 203.881 L 335.279 204.845 332.139 210.407 L 329 215.970 329 218.985 L 329 222 326.532 222 L 324.064 222 322.721 224.564 L 321.377 227.127 318.939 228.337 L 316.500 229.547 315.900 234.024 L 315.300 238.500 315.150 235.762 L 315 233.024 307.434 227.012 L 299.869 221 291.982 221 L 284.094 221 281.297 222.201 C 279.759 222.862, 277.375 224.146, 276 225.055 C 274.625 225.965, 272.215 227.020, 270.644 227.400 L 267.788 228.091 265.313 226.470 L 262.838 224.848 261.519 225.354 L 260.200 225.860 255.350 219.812 C 252.683 216.486, 249.825 213.250, 249 212.622 C 248.175 211.994, 246.674 210.506, 245.663 209.316 L 243.827 207.151 244.979 201.326 C 245.613 198.122, 247.176 192.125, 248.452 188 C 249.729 183.875, 251.061 178.856, 251.414 176.847 L 252.054 173.193 253.649 172.581 L 255.244 171.969 254.648 168.989 C 254.320 167.350, 253.313 164.882, 252.411 163.504 L 250.770 161 248.479 161 L 246.187 161 246.706 159.018 L 247.224 157.036 244.362 155.935 L 241.500 154.834 230 154.937 C 223.675 154.994, 216.925 155.013, 215 154.980 C 213.075 154.947, 207.295 154.840, 202.155 154.742 L 192.809 154.564 193.458 151.032 C 193.815 149.089, 194.367 145.700, 194.685 143.500 L 195.263 139.500 196.786 137.750 C 197.624 136.787, 198.817 136, 199.436 136 L 200.562 136 201.655 133.102 L 202.749 130.205 204.875 129.067 L 207 127.930 207 129.342 C 207 130.119, 207.599 131.252, 208.330 131.859 L 209.661 132.963 212.267 130.232 C 215.362 126.988, 217 123.023, 217 118.779 L 217 115.689 219.697 112.094 C 221.181 110.117, 222.669 108.275, 223.005 108 C 224.803 106.529, 227 102.264, 227 100.246 L 227 97.937 225.433 97.336 L 223.865 96.734 221.480 98.010 L 219.096 99.287 214.600 98.028 L 210.104 96.769 206.802 97.337 C 197.873 98.873, 196.355 99.195, 194.500 99.944 C 193.400 100.388, 191.262 101.247, 189.750 101.854 L 187 102.957 187 105.593 L 187 108.229 184.365 113.071 L 181.729 117.913 177.865 120.471 L 174 123.028 174 125.014 L 174 127 171.910 127 L 169.821 127 168.098 124.873 L 166.376 122.746 164.188 123.440 L 162 124.135 161.974 125.317 L 161.948 126.500 158.147 128.250 C 156.056 129.213, 153.374 130, 152.187 130 C 151 130, 148.052 130.529, 145.637 131.175 L 141.245 132.349 137.974 128.623 C 136.175 126.574, 133.362 124.204, 131.723 123.357 L 128.743 121.816 126.445 122.255 L 124.146 122.695 123.484 117.885 C 122.788 112.823, 121.619 110.233, 115.660 100.559 L 112 94.618 112 86.309 L 112 78 111 78 L 110 78 109.864 81.750 C 109.789 83.813, 109.638 87.075, 109.529 89 C 109.263 93.691, 110.573 97.291, 115.273 104.777 L 119.213 111.054 121.030 118.117 C 122.029 122.002, 123.127 125.460, 123.469 125.802 L 124.091 126.424 126.104 125.167 L 128.118 123.910 131.309 125.937 C 133.064 127.052, 135.793 129.557, 137.373 131.504 L 140.246 135.045 143.873 134.478 C 152.422 133.142, 161.705 129.778, 163.673 127.303 L 164.847 125.827 167.733 127.961 L 170.620 130.095 173.310 129.072 L 176 128.050 176.039 126.275 L 176.077 124.500 179.287 122.480 L 182.498 120.460 185.749 115.492 L 189 110.523 189 107.355 L 189 104.186 194.250 102.682 C 197.137 101.854, 201.936 100.678, 204.914 100.068 L 210.327 98.960 214.644 100.608 L 218.960 102.256 221.428 100.639 L 223.896 99.022 224.538 100.061 L 225.180 101.100 222.568 104.300 C 221.132 106.060, 218.846 109.090, 217.489 111.033 L 215.021 114.566 214.359 119.533 L 213.696 124.500 211.348 127.327 L 209 130.153 209 128.199 C 209 127.124, 208.422 125.765, 207.716 125.179 L 206.432 124.114 202.716 127.620 C 200.672 129.548, 199 131.729, 199 132.465 L 199 133.804 196.250 134.702 C 194.738 135.195, 192.600 135.520, 191.500 135.423 C 186.579 134.990, 182.252 134.805, 179.225 134.899 L 175.950 135 174.977 137.560 L 174.004 140.120 172.995 139.497 L 171.986 138.873 171.359 140.507 L 170.732 142.141 174.366 145.863 C 176.365 147.910, 178 150.189, 178 150.928 L 178 152.272 173.397 151.641 L 168.795 151.010 165.998 153.002 L 163.201 154.993 162.131 159.746 C 161.543 162.361, 160.947 166.179, 160.808 168.231 L 160.553 171.962 161.496 172.018 L 162.438 172.074 163.637 164.956 L 164.837 157.838 166.668 155.811 L 168.500 153.784 173.429 154.366 L 178.358 154.948 179.679 153.852 C 180.405 153.249, 181 151.973, 181 151.018 L 181 149.281 177.650 146.006 L 174.300 142.730 177.400 139.765 L 180.500 136.800 184.890 137.400 C 187.304 137.730, 190.116 138, 191.140 138 L 193 138 192.983 140.250 C 192.973 141.488, 192.118 145.764, 191.082 149.752 L 189.198 157.005 189.903 157.440 C 190.291 157.680, 192.568 157.435, 194.963 156.897 L 199.318 155.918 200.199 156.799 L 201.079 157.679 195.823 161.090 L 190.567 164.500 189.994 167 L 189.421 169.500 186.621 169.825 L 183.821 170.150 182.188 172.995 L 180.555 175.841 175.027 176.214 L 169.500 176.587 166 175.689 L 162.500 174.791 158.416 170.551 C 156.170 168.220, 151.946 163.429, 149.028 159.906 C 146.111 156.383, 142.774 152.953, 141.612 152.285 C 137.465 149.901, 130.876 150.982, 127.209 154.648 C 126.477 155.380, 123.399 156.700, 120.370 157.581 L 114.862 159.182 112.333 158.547 C 110.942 158.198, 106.360 155.932, 102.152 153.511 L 94.500 149.110 88 147.988 L 81.500 146.866 76.491 144.599 L 71.482 142.332 68.491 139.101 C 66.846 137.323, 63.537 134.702, 61.138 133.274 L 56.777 130.679 53.517 131.858 L 50.258 133.036 48.785 132.471 C 47.976 132.160, 46.005 130.145, 44.407 127.992 L 41.500 124.078 38.775 122.928 C 37.276 122.296, 35.228 121.041, 34.224 120.139 C 31.477 117.674, 27 111.471, 27 110.131 L 27 108.950 29.421 108.030 L 31.841 107.110 31.304 105.055 L 30.767 103 31.776 103 C 32.332 103, 33.069 102.262, 33.416 101.359 L 34.045 99.718 32.523 97.394 C 31.685 96.116, 31 94.136, 31 92.994 C 31 90.381, 27.097 78.178, 26.055 77.534 C 25.628 77.270, 25.021 77.312, 24.706 77.627 M 205.821 157.284 C 205.095 157.990, 202.439 159.764, 199.920 161.226 C 194.634 164.295, 193.511 165.513, 192.655 169.106 L 192.034 171.712 195.767 173.318 C 197.820 174.202, 200.620 175.054, 201.990 175.212 L 204.480 175.500 204.824 177.500 C 205.014 178.600, 205.714 179.950, 206.380 180.500 C 207.047 181.050, 208.289 182.513, 209.140 183.751 L 210.689 186.001 212.255 184.251 C 213.117 183.288, 214.054 180.995, 214.338 179.156 C 214.982 174.991, 215.401 174.566, 217.633 175.815 L 219.417 176.813 220.641 175.156 L 221.865 173.500 222.991 174.608 L 224.116 175.716 229.692 170.358 L 235.269 165 237.012 165 C 237.971 165, 239.315 165.675, 240 166.500 L 241.245 168 243.467 168 L 245.690 168 247.345 166.171 C 249.608 163.671, 249.429 163, 246.500 163 L 244 163 244 160.614 L 244 158.227 239.750 157.598 C 237.412 157.252, 232.575 156.950, 229 156.928 L 222.500 156.888 219.132 157.908 L 215.764 158.928 212.260 157.464 C 207.981 155.676, 207.490 155.663, 205.821 157.284 M 247.673 168.605 C 244.253 171.547, 243.017 171.588, 239.569 168.876 L 236.869 166.752 233.769 169.626 C 232.064 171.207, 229.339 173.972, 227.712 175.771 L 224.756 179.042 223.467 177.973 L 222.178 176.903 221.496 178.007 L 220.814 179.111 219.157 178.778 L 217.500 178.445 215.978 182.454 L 214.457 186.462 212.018 187.679 L 209.578 188.895 208.042 187.697 C 207.197 187.039, 209.357 189.650, 212.841 193.500 C 216.326 197.350, 219.748 200.823, 220.444 201.219 L 221.711 201.937 221.238 199.463 L 220.765 196.989 222.005 195.494 C 222.687 194.672, 223.605 194, 224.046 194 C 225.588 194, 231.181 199.345, 232.061 201.661 L 232.950 204 235.253 204 C 236.519 204, 238.513 204.671, 239.685 205.492 L 241.815 206.984 242.515 201.890 C 242.900 199.088, 244.235 193.579, 245.481 189.648 C 246.727 185.717, 248.076 180.540, 248.479 178.144 L 249.212 173.788 251.139 171.861 L 253.067 169.933 251.762 168.071 L 250.458 166.209 247.673 168.605 M 185.275 172.809 C 184.601 173.237, 183.926 174.650, 183.775 175.949 L 183.500 178.310 190.268 179.986 L 197.035 181.662 198.198 180.262 L 199.360 178.861 201.180 179.337 L 203 179.813 203 178.406 L 203 177 200.082 177 L 197.164 177 192.187 174.500 C 186.568 171.678, 186.920 171.764, 185.275 172.809 M 487 175.300 C 487 178.384, 492.055 180.337, 493.594 177.848 L 494.306 176.697 492.462 175.348 C 491.447 174.607, 489.804 174, 488.809 174 L 487 174 487 175.300 M 503.500 184 L 502.882 185 503.510 186.016 L 504.138 187.033 505.069 186.457 C 506.284 185.707, 506.276 183, 505.059 183 C 504.541 183, 503.840 183.450, 503.500 184 M 388.411 195.498 C 388.066 196.872, 388.044 198.672, 388.361 199.498 L 388.937 201 390.990 201 L 393.043 201 394.153 198.564 L 395.263 196.128 394.663 194.564 L 394.063 193 391.550 193 L 389.038 193 388.411 195.498 M 369.500 196.693 C 367.850 197.580, 365.150 199.299, 363.500 200.515 C 359.928 203.145, 354.744 205, 350.966 205 L 348.230 205 346.592 207.500 L 344.954 210 342.883 210 L 340.813 210 340.290 208 C 340.002 206.900, 339.439 206, 339.038 206 C 337.948 206, 335.448 209.092, 333.621 212.700 L 332 215.901 332 218.879 L 332 221.857 330.429 223.429 C 329.564 224.293, 328.041 225, 327.044 225 L 325.230 225 323.642 227.424 C 322.768 228.757, 321.091 230.154, 319.915 230.527 L 317.777 231.205 318.382 234.986 L 318.986 238.766 317.620 239.900 L 316.253 241.035 314.877 240.542 L 313.500 240.050 310.250 243.011 L 307 245.972 307.006 247.736 C 307.010 248.706, 307.719 250.850, 308.582 252.500 L 310.152 255.500 310.443 269.500 L 310.733 283.500 307.749 286.668 C 306.108 288.411, 304.256 290.858, 303.633 292.106 L 302.500 294.374 299 295.265 C 297.075 295.756, 295.121 296.523, 294.657 296.971 L 293.815 297.785 295 300 L 296.185 302.215 295.207 303.193 L 294.230 304.170 298.477 308.085 L 302.724 312 304.805 312 L 306.887 312 308.332 314.063 L 309.777 316.127 315.139 315.866 L 320.500 315.606 323.687 317.296 C 325.439 318.225, 327.154 319.440, 327.497 319.996 L 328.121 321.005 330.098 319.947 L 332.076 318.889 334.288 319.563 C 337.514 320.545, 340.088 323.056, 341.647 326.741 L 343.019 329.981 346.474 331.425 L 349.929 332.868 350.549 335.340 L 351.169 337.811 353.085 338.312 L 355 338.813 355 340.779 L 355 342.744 358.939 343.374 L 362.879 344.004 366.383 341.937 L 369.887 339.869 371.923 340.959 L 373.959 342.048 376.304 341.460 L 378.648 340.871 379.947 342.436 L 381.245 344 383.144 344 L 385.043 344 386.120 346.364 L 387.197 348.728 384.572 352.885 L 381.948 357.043 383.474 357.628 C 384.313 357.950, 385.611 357.980, 386.357 357.693 L 387.713 357.173 389.375 350.558 C 390.289 346.920, 391.291 341.369, 391.601 338.222 L 392.166 332.500 388.083 325.805 L 384 319.110 384 317.102 L 384 315.094 387.750 314.053 C 389.813 313.480, 392.175 312.980, 393 312.942 L 394.500 312.873 392.158 311.935 C 390.869 311.418, 389.502 311.190, 389.120 311.426 C 388.737 311.662, 387.836 310.525, 387.116 308.899 L 385.807 305.943 387.427 303.472 L 389.046 301 392.942 301 L 396.838 301 399.669 299.623 C 401.226 298.866, 404.617 297.200, 407.203 295.920 L 411.907 293.593 410.842 292.309 L 409.776 291.025 410.337 289.564 L 410.898 288.102 409.199 288.720 L 407.500 289.339 409.500 286.920 C 410.600 285.589, 412.095 284.122, 412.823 283.659 L 414.146 282.819 412.677 281.159 L 411.208 279.500 410.062 273.887 L 408.915 268.275 410.323 264.387 C 411.097 262.249, 412.049 259.753, 412.438 258.840 L 413.145 257.181 403.322 257.679 L 393.500 258.178 390.750 255.548 C 389.238 254.102, 388 252.515, 388 252.022 C 388 251.528, 387.212 251.100, 386.250 251.071 C 385.288 251.041, 380.042 250.413, 374.593 249.673 L 364.685 248.329 362.742 245.930 L 360.800 243.531 361.321 239.640 L 361.843 235.750 360.728 233.125 C 360.115 231.681, 358.956 229.713, 358.152 228.750 L 356.690 227 354.845 227 C 352.664 227, 352.451 225.700, 354.372 224.106 C 355.126 223.480, 356.739 220.238, 357.955 216.902 L 360.167 210.837 365.240 205.168 C 368.031 202.051, 371.593 198.856, 373.157 198.069 C 374.721 197.281, 376 196.269, 376 195.819 C 376 194.508, 372.751 194.945, 369.500 196.693 M 389.916 204.778 C 386.294 205.754, 382.081 207.372, 380.553 208.373 L 377.775 210.193 378.556 214.347 C 378.986 216.631, 379.326 219.725, 379.313 221.222 L 379.290 223.945 376.895 225.939 C 373.649 228.642, 372.491 228.499, 370.068 225.096 L 368 222.191 368 219.503 L 368 216.815 370 214.273 L 372 211.730 372 207.865 C 372 203.487, 371.855 203.394, 368.482 205.603 C 365.580 207.505, 362.289 212.585, 359.445 219.555 L 357.382 224.610 359.543 226.240 L 361.704 227.870 362.970 232.394 L 364.237 236.919 363.625 239.357 L 363.013 241.795 364.757 243.889 L 366.500 245.983 377.399 247.578 L 388.297 249.173 391.639 252.716 L 394.980 256.259 404.991 255.549 L 415.001 254.840 415.561 256.297 L 416.120 257.755 414.064 261.127 L 412.007 264.500 412.103 269 C 412.216 274.300, 412.893 276.690, 415.190 279.907 L 416.879 282.273 421.940 279.627 C 424.723 278.171, 427 277.197, 427 277.460 C 427 277.724, 429.532 276.414, 432.627 274.550 L 438.254 271.160 439.627 271.687 C 441.280 272.321, 441.458 274, 439.872 274 C 439.251 274, 436.214 275.450, 433.122 277.222 C 430.030 278.994, 426.640 280.578, 425.588 280.741 C 422.862 281.163, 416.887 284.959, 414.269 287.931 L 412.038 290.464 414.519 291.764 L 417 293.064 417 294.985 C 417 296.546, 418.590 301.280, 419.645 302.859 C 419.776 303.056, 423.957 301.181, 428.935 298.693 L 437.986 294.169 438.593 295.151 C 438.927 295.691, 439.043 296.280, 438.850 296.460 C 437.644 297.586, 422.247 304.996, 421.110 304.998 L 419.721 305 423.499 307.564 L 427.277 310.128 429.889 309.180 C 431.325 308.659, 433.475 308.211, 434.667 308.185 C 435.859 308.158, 439.303 306.969, 442.321 305.541 L 447.807 302.946 448.370 301.479 C 448.679 300.672, 450.325 299.165, 452.028 298.129 L 455.122 296.247 452.541 295.600 L 449.959 294.952 448.040 295.979 L 446.121 297.005 445.504 296.007 L 444.887 295.009 447.458 293.837 L 450.029 292.666 449.447 290.583 C 449.128 289.437, 448.401 287.285, 447.833 285.801 L 446.799 283.102 442.920 285.551 C 440.786 286.898, 438.572 288, 438 288 C 437.428 288, 435.201 289.110, 433.051 290.468 C 430.902 291.825, 427.993 293.143, 426.588 293.398 C 425.183 293.653, 423.576 294.144, 423.016 294.490 L 422 295.118 422 294.023 L 422 292.929 426.250 291.015 C 428.587 289.962, 432.075 288.233, 434 287.172 C 435.925 286.111, 439.179 284.416, 441.232 283.404 L 444.964 281.564 443.982 280.582 C 443.442 280.042, 443 278.838, 443 277.907 L 443 276.214 444.591 275.603 L 446.182 274.993 449.659 276.642 L 453.135 278.292 456.954 276.146 C 459.054 274.966, 461.536 274, 462.469 274 L 464.167 274 463.750 275.250 C 463.521 275.938, 462.808 276.556, 462.167 276.625 C 461.525 276.694, 460.765 276.806, 460.477 276.875 C 460.189 276.944, 460.702 278.142, 461.616 279.537 L 463.279 282.074 464.399 279.826 L 465.520 277.578 468.853 276.896 C 470.686 276.521, 472.658 275.742, 473.237 275.163 L 474.288 274.112 471.894 274.729 L 469.500 275.347 470.872 273.673 C 471.627 272.753, 472.938 272, 473.785 272 C 475.006 272, 483.063 267.919, 484.902 266.369 C 485.122 266.183, 484.110 264.837, 482.652 263.379 C 481.193 261.920, 480 260.359, 480 259.908 L 480 259.089 476.250 260.453 C 474.188 261.203, 467.775 264.220, 462 267.158 C 456.225 270.096, 450.488 272.641, 449.250 272.813 L 447 273.126 447 272.063 C 447 271.478, 447.608 271, 448.351 271 C 449.094 271, 451.907 269.806, 454.601 268.346 C 463.020 263.784, 473.402 258.808, 475.237 258.454 C 476.204 258.268, 478.288 257.352, 479.868 256.419 L 482.740 254.722 482.301 253.041 L 481.861 251.360 483.180 250.314 C 483.906 249.739, 485.850 248.811, 487.500 248.251 L 490.500 247.233 488.854 246.549 L 487.208 245.866 481 249 L 474.792 252.134 473.332 251.574 L 471.873 251.014 472.496 250.007 C 472.838 249.453, 473.985 249, 475.044 249 C 477.693 249, 486.036 243.724, 490.667 239.120 C 492.775 237.024, 495.175 235.071, 496 234.779 L 497.500 234.250 496.387 233.062 L 495.274 231.874 489.260 233.433 C 485.952 234.290, 481.953 235.665, 480.373 236.489 C 478.793 237.313, 476.957 237.990, 476.294 237.994 C 475.631 237.997, 472.798 239.350, 470 241 C 467.202 242.650, 464.439 244, 463.860 244 C 463.282 244, 461.614 244.839, 460.154 245.864 C 458.694 246.890, 455.824 248.326, 453.775 249.056 L 450.050 250.384 449.358 249.692 C 448.515 248.848, 449.342 247.920, 451.175 247.651 C 451.923 247.541, 454.101 246.503, 456.017 245.343 C 459.536 243.214, 474.864 235.683, 476.250 235.402 C 476.663 235.318, 477.459 235.194, 478.019 235.125 L 479.038 235 478.411 232.500 L 477.783 230 480.783 230 L 483.783 230 484.471 227.260 C 484.849 225.753, 485.678 224.199, 486.313 223.807 L 487.467 223.093 483.564 221.462 L 479.661 219.832 477.581 220.335 C 476.436 220.612, 474.488 221.152, 473.250 221.536 L 471 222.233 471 220.725 L 471 219.217 468.500 218.589 L 466 217.962 466 216.672 C 466 215.963, 465.393 214.553, 464.652 213.539 L 463.304 211.696 456.402 213.512 C 452.606 214.511, 448.285 215.930, 446.800 216.665 C 445.314 217.399, 443.119 218, 441.921 218 L 439.743 218 434.199 214.828 L 428.654 211.655 421.577 213.078 L 414.500 214.500 411.134 214.178 L 407.767 213.856 408.377 210.045 L 408.986 206.234 407.599 205.082 L 406.212 203.931 401.356 203.467 L 396.500 203.004 389.916 204.778 M 223.378 208.138 L 224.005 211.276 222.266 212.548 L 220.527 213.819 222.511 216.012 C 224.629 218.353, 229.907 221.426, 230.607 220.726 C 230.839 220.495, 230.122 219.153, 229.014 217.745 C 226.582 214.653, 226.509 214, 228.600 214 L 230.200 214 233.850 217.747 L 237.500 221.495 241 222.552 L 244.500 223.609 244.195 227.396 L 243.891 231.183 246.774 230.550 L 249.657 229.916 250.761 232.208 L 251.865 234.500 251.932 230.809 L 252 227.118 251 226.500 C 250.450 226.160, 250 225.031, 250 223.991 L 250 222.099 251.564 221.224 L 253.128 220.349 246.731 214.365 L 240.334 208.381 237.117 207.048 L 233.900 205.716 231.495 207.003 L 229.091 208.289 226.581 206.645 C 225.200 205.740, 223.773 205, 223.410 205 L 222.750 205 223.378 208.138 M 451.222 207.166 L 451.667 208.500 453.333 208.500 C 454.250 208.500, 455.113 208.050, 455.250 207.500 L 455.500 206.500 453.139 206.166 L 450.777 205.832 451.222 207.166 M 483.385 207.765 C 482.771 208.169, 481.923 209.625, 481.500 211 C 481.077 212.375, 480.283 213.787, 479.737 214.138 L 478.744 214.776 479.431 215.888 L 480.118 217 482.904 217 L 485.690 217 487.345 215.171 C 490.987 211.147, 487.669 204.943, 483.385 207.765 M 484.032 212.750 L 484.064 215.500 485.532 213.559 C 487.403 211.085, 487.393 210, 485.500 210 L 484 210 484.032 212.750 M 253.370 225.250 C 253.701 226.488, 253.979 228.488, 253.986 229.695 L 254 231.890 258.750 232.195 L 263.500 232.500 265.125 235.754 L 266.751 239.008 268.198 236.829 L 269.645 234.650 271.304 235.287 L 272.964 235.923 273.613 239.984 C 274.417 245.010, 275.148 245.492, 278.971 243.515 C 282.646 241.614, 282.704 241.010, 279.500 238 C 276.338 235.029, 276.361 234.193, 279.639 232.947 C 281.091 232.395, 283.657 230.783, 285.343 229.365 L 288.408 226.786 292.790 227.280 L 297.173 227.774 301.186 232.078 L 305.199 236.381 303.451 237.659 L 301.703 238.937 302.974 240.469 C 303.673 241.311, 304.886 242, 305.670 242 C 307.473 242, 311.926 237.010, 311.968 234.943 L 312 233.385 307.342 229.943 C 304.781 228.049, 301.630 225.786, 300.341 224.913 L 297.998 223.326 291.749 223.546 C 284.103 223.816, 280.276 224.758, 276.977 227.185 L 274.454 229.040 269.248 229.657 L 264.042 230.274 263.404 228.611 L 262.766 226.949 261.450 228.041 L 260.134 229.133 257.402 226.067 C 255.899 224.380, 254.241 223, 253.718 223 L 252.767 223 253.370 225.250 M 498.157 236.903 L 496.831 237.723 499.165 238.356 L 501.500 238.990 496 241.599 L 490.500 244.207 492.750 245.071 C 493.988 245.547, 495 246.349, 495 246.854 C 495 247.811, 488.969 251, 487.158 251 C 486.586 251, 485.854 251.426, 485.532 251.948 L 484.947 252.895 486.952 252.509 L 488.958 252.123 489.495 252.992 L 490.033 253.862 488.766 254.653 C 488.070 255.088, 486.871 255.539, 486.103 255.655 C 485.334 255.771, 483.984 256.600, 483.103 257.496 L 481.500 259.126 484.407 261.650 L 487.313 264.173 489.407 263.687 C 493.191 262.806, 501.779 259.268, 504.134 257.618 C 506.942 255.652, 508 255.573, 508 257.329 L 508 258.658 503.250 260.751 C 500.637 261.901, 497.693 263.097, 496.707 263.407 L 494.914 263.970 496.012 266.023 L 497.111 268.076 496.514 269.957 L 495.916 271.839 497.973 272.492 L 500.030 273.144 503.383 271.072 C 507.318 268.640, 508 268.533, 508 270.348 L 508 271.696 504.119 273.446 L 500.239 275.196 500.709 276.996 L 501.180 278.796 500.065 280.879 L 498.950 282.962 502.518 280.857 L 506.085 278.752 506.791 279.458 L 507.497 280.164 505.498 281.688 C 504.399 282.527, 502.018 283.855, 500.206 284.638 L 496.913 286.063 496.307 287.643 L 495.700 289.223 497.350 292.016 C 498.258 293.552, 499 295.730, 499 296.856 L 499 298.904 502.653 302.452 C 506.517 306.204, 508.459 306.853, 509.295 304.673 L 509.805 303.346 516.423 301.173 L 523.042 299 526.521 299 C 528.434 299, 530 298.795, 530 298.544 C 530 298.294, 528.875 296.431, 527.500 294.405 C 526.125 292.379, 525 289.884, 525 288.860 L 525 287 523.604 287 L 522.207 287 519.104 283.465 L 516 279.930 516 275.920 L 516 271.909 518.455 269.455 C 519.805 268.105, 521.589 267, 522.419 267 L 523.930 267 524.965 265.066 C 525.534 264.002, 526 262.218, 526 261.102 L 526 259.072 521.750 255.061 C 516.764 250.356, 515.713 250.139, 514.182 253.500 L 513.043 256 511.589 256 L 510.135 256 509.484 253.951 L 508.834 251.902 510.502 249.357 L 512.170 246.812 511.577 244.451 L 510.984 242.090 507.742 239.676 C 505.959 238.349, 503.371 236.997, 501.992 236.673 L 499.483 236.083 498.157 236.903 M 431.250 244.175 C 428.410 245.930, 426.944 248, 428.540 248 C 429.186 248, 435.880 244.500, 438 243.054 L 439.500 242.031 437 242.098 L 434.500 242.166 431.250 244.175 M 504 248.525 C 502.625 249.334, 500.262 250.436, 498.750 250.973 C 495.892 251.989, 494.977 254, 497.374 254 C 499.306 254, 508 249.021, 508 247.915 C 508 246.643, 506.915 246.809, 504 248.525 M 436.460 250.273 C 434.832 251.307, 430.585 253.495, 427.022 255.137 C 421.036 257.894, 418.497 259.831, 419.523 260.856 C 419.751 261.084, 421.036 260.551, 422.379 259.671 C 423.722 258.792, 425.884 257.879, 427.184 257.643 C 428.485 257.407, 431.900 255.828, 434.774 254.133 C 437.648 252.438, 440 251.320, 440 251.648 C 440 251.976, 440.675 251.685, 441.500 251 C 445.337 247.816, 441.258 247.228, 436.460 250.273 M 456.947 253.754 C 452.794 255.814, 446.944 258.588, 443.947 259.917 C 440.951 261.246, 436.025 263.715, 433 265.402 C 429.975 267.090, 427.185 268.478, 426.800 268.486 C 426.415 268.494, 425.538 269.063, 424.850 269.750 L 423.600 271 425.550 271 C 426.623 271.001, 432.900 268.336, 439.500 265.079 C 446.100 261.822, 454.751 257.660, 458.725 255.829 L 465.949 252.500 465.975 251.250 C 466.012 249.422, 465.265 249.629, 456.947 253.754 M 528 262.066 C 528 263.202, 527.514 265.040, 526.920 266.150 L 525.839 268.169 522.466 269.579 L 519.093 270.988 518.455 274.389 L 517.817 277.791 519.524 280.396 C 520.463 281.829, 522.377 283.564, 523.777 284.251 L 526.324 285.500 527.602 289.228 C 528.857 292.890, 533.853 300, 535.171 300 C 535.539 300, 536.135 298.662, 536.494 297.027 L 537.147 294.053 540.824 293.032 C 545.972 291.602, 548.685 291.748, 551.520 293.605 L 553.970 295.210 554.847 292.855 C 555.330 291.560, 556.325 288.817, 557.060 286.760 L 558.394 283.021 555.697 280.206 L 553 277.391 553 274.130 C 553 270.215, 554.498 267.183, 557.659 264.696 C 560.770 262.249, 560.611 261.293, 556.959 260.491 L 553.918 259.823 552.535 260.971 L 551.152 262.119 547.496 261.433 L 543.840 260.747 541.430 262.038 L 539.019 263.328 537.181 261.664 L 535.343 260 531.671 260 L 528 260 528 262.066 M 559.763 265.827 L 556.026 269.620 555.415 272.675 L 554.804 275.730 557.780 278.775 L 560.757 281.820 560.244 284.660 C 559.962 286.222, 559.407 287.950, 559.011 288.500 C 558.615 289.050, 557.789 290.988, 557.177 292.806 L 556.065 296.113 560.418 295.460 L 564.771 294.807 566.839 295.914 L 568.907 297.021 572.518 293.850 L 576.128 290.680 578.486 286.027 C 579.783 283.468, 581.554 280.785, 582.422 280.065 C 583.290 279.344, 584 278.327, 584 277.804 C 584 275.411, 567.276 262.248, 564 262.062 C 563.725 262.046, 561.818 263.741, 559.763 265.827 M 488.922 269.756 L 487.345 272.500 479.422 275.496 C 475.065 277.143, 470.375 278.733, 469 279.028 L 466.500 279.565 466.763 281.149 L 467.026 282.733 465.399 284.084 L 463.771 285.435 461.433 282.718 L 459.096 280 457.498 280 C 456.620 280, 454.630 280.657, 453.077 281.460 L 450.254 282.920 449.627 282.293 C 448.668 281.334, 448.850 282.100, 450.806 287.250 L 452.609 291.999 457.305 289.022 C 459.887 287.384, 462 286.263, 462 286.532 C 462 286.800, 464.137 285.915, 466.750 284.566 C 469.363 283.217, 472.151 281.975, 472.947 281.807 C 473.743 281.638, 476.838 280.074, 479.824 278.330 L 485.254 275.160 486.621 275.685 C 488.641 276.460, 487.798 277.177, 480.821 280.614 C 469.530 286.176, 462.524 289.499, 462.007 289.538 C 461.728 289.559, 460.150 290.312, 458.500 291.211 L 455.500 292.846 457.250 293.530 L 459 294.214 459 295.607 L 459 297 460.125 296.750 C 460.744 296.613, 461.421 296.957, 461.630 297.516 L 462.011 298.532 456.255 301.696 C 453.090 303.437, 450.156 304.881, 449.736 304.906 C 448.554 304.976, 439.703 310.019, 437.808 311.702 L 436.116 313.205 434.808 312.760 L 433.500 312.314 429.770 314.657 C 425.784 317.161, 423.486 317.595, 422.518 316.029 L 421.918 315.059 424.459 314.421 C 425.857 314.070, 426.992 313.494, 426.982 313.142 C 426.972 312.789, 424.722 311.034, 421.982 309.242 L 417 305.985 417 303.683 C 417 302.418, 416.385 300.542, 415.634 299.515 L 414.269 297.647 409.881 302.161 L 405.494 306.675 400.392 308.370 L 395.290 310.065 395.735 312.392 L 396.180 314.720 393.840 315.346 C 392.553 315.691, 390.514 315.979, 389.309 315.986 C 388.104 315.994, 386.827 316.471, 386.472 317.046 L 385.825 318.092 389.913 324.366 L 394 330.639 394 335.552 L 394 340.464 391.320 352.694 L 388.640 364.924 387.230 365.465 L 385.820 366.006 382.801 364.253 L 379.782 362.500 378.269 364.750 L 376.756 367 372.354 367 L 367.952 367 362.726 370.567 L 357.500 374.134 355.926 381.817 L 354.353 389.500 352.176 389.820 L 350 390.139 350 393.486 L 350 396.833 348.867 397.211 L 347.735 397.588 348.396 399.671 C 348.759 400.816, 351.311 404.330, 354.066 407.478 L 359.076 413.203 358.013 414.485 L 356.949 415.766 358.556 416.383 C 359.440 416.722, 361.444 417, 363.009 417 L 365.855 417 367.821 419.500 L 369.788 422 373.259 422 L 376.730 422 379.273 420 C 380.671 418.900, 382.494 418, 383.322 418 L 384.829 418 385.509 425.252 L 386.188 432.504 396.785 432.674 L 407.382 432.844 409.826 430.922 C 411.170 429.865, 413.061 429, 414.028 429 L 415.786 429 416.362 427.500 L 416.937 426 418.813 426 L 420.689 426 423.594 423.474 C 426.670 420.800, 427.726 420.447, 435.206 419.590 L 439.913 419.050 440.593 420.150 C 440.967 420.755, 441.900 424.864, 442.666 429.282 L 444.060 437.314 447.577 442.104 L 451.093 446.895 453.038 447.512 C 454.107 447.851, 455.331 447.913, 455.757 447.650 C 456.184 447.386, 458.703 447.576, 461.356 448.072 L 466.179 448.973 469.166 451.487 L 472.153 454 474.133 454 L 476.113 454 478.867 457.015 L 481.621 460.030 486.220 459.857 L 490.819 459.683 493.853 460.939 L 496.887 462.196 498.873 468.330 L 500.860 474.464 499.954 475.556 L 499.048 476.648 500.113 477.713 C 500.699 478.299, 501.328 480.389, 501.511 482.358 C 501.694 484.327, 502.131 486.402, 502.481 486.969 L 503.118 488 510.809 488.015 L 518.500 488.031 519.994 488.975 L 521.487 489.919 521.231 492.710 C 520.908 496.218, 521.404 496.886, 527.319 500.911 L 532.137 504.191 531.431 512.345 C 529.987 529.005, 530.046 530.591, 532.623 544.735 L 533.030 546.970 535.765 547.625 C 537.269 547.986, 539.751 548.911, 541.280 549.682 L 544.060 551.083 545.674 549.469 L 547.288 547.855 549.894 548.502 C 553.761 549.461, 556.801 552.768, 559.777 559.250 L 562.434 565.040 566.467 566.027 C 568.685 566.569, 571.625 567.604, 573 568.325 L 575.500 569.637 575.262 571.568 C 574.792 575.382, 573.896 580.523, 573.489 581.735 L 573.074 582.969 574.971 583.985 C 576.015 584.543, 577.788 585, 578.911 585 L 580.954 585 582.417 587.250 L 583.880 589.500 584.547 594.586 L 585.214 599.672 578.857 604.268 C 570.443 610.352, 564.694 615.768, 562.423 619.750 C 561.403 621.538, 560.248 623, 559.855 623 C 559.463 623, 557.710 625.122, 555.960 627.715 L 552.778 632.429 554.376 631.103 L 555.974 629.777 558.246 630.347 C 559.496 630.661, 562.315 632.594, 564.509 634.643 L 568.500 638.369 570.746 638.113 L 572.992 637.858 575.746 639.798 C 577.261 640.866, 580.525 642.758, 583 644.004 C 585.475 645.250, 589.525 647.942, 592 649.988 C 594.475 652.034, 597.513 654.239, 598.750 654.889 L 601 656.070 601.032 659.285 L 601.064 662.500 602.403 664.264 L 603.741 666.029 605.871 661.079 L 608 656.129 608 651.109 L 608 646.089 610.500 642.405 L 613 638.721 613 634.983 L 613 631.245 614.519 629.984 L 616.038 628.724 617.769 630.278 L 619.500 631.832 622.079 631.332 L 624.659 630.832 625.933 627.308 L 627.208 623.783 631.114 619.642 L 635.020 615.500 636.669 611.190 L 638.318 606.879 636.238 601.690 C 635.095 598.835, 633.861 595.465, 633.497 594.201 L 632.834 591.902 634.459 589.423 L 636.083 586.944 635.444 585.910 C 635.093 585.342, 633.644 584.435, 632.224 583.895 L 629.642 582.913 631.571 580.987 C 632.632 579.928, 634.529 578.905, 635.786 578.713 L 638.072 578.366 643.786 572.727 L 649.500 567.088 653.305 565.508 C 655.397 564.639, 659.447 563.486, 662.305 562.947 L 667.500 561.966 670.745 558.433 L 673.990 554.900 679.785 555.555 L 685.580 556.211 686.913 554.605 L 688.245 553 690.122 553 L 692 553 692 554.430 L 692 555.860 695 555 L 698 554.140 698 554.792 C 698 555.151, 698.705 554.439, 699.566 553.209 C 700.427 551.979, 702.861 550.091, 704.974 549.013 L 708.817 547.053 708.299 543.189 L 707.780 539.325 709.401 536.192 C 710.292 534.469, 711.864 532.608, 712.895 532.056 L 714.770 531.053 715.463 528.276 C 715.844 526.749, 716.880 524.696, 717.766 523.713 L 719.376 521.927 719.204 515.238 L 719.032 508.550 721.615 504.646 L 724.199 500.743 723.636 497.930 L 723.073 495.116 724.571 490.074 L 726.068 485.032 724.453 481.908 L 722.837 478.785 723.434 476.407 L 724.031 474.030 722.426 466.975 L 720.822 459.921 722.608 457.211 C 723.590 455.720, 724.460 453.645, 724.541 452.601 L 724.688 450.701 726.524 449.359 L 728.360 448.016 730.186 449.669 C 731.191 450.577, 732.151 451.136, 732.320 450.911 C 732.489 450.685, 733.612 449.202, 734.814 447.615 L 737 444.730 736.993 442.615 C 736.990 441.452, 738.217 437.902, 739.721 434.726 L 742.455 428.951 743.977 429.091 C 744.815 429.168, 746.009 429.178, 746.631 429.115 C 748.386 428.937, 754.115 422.788, 755.125 420 L 756.031 417.500 758.955 415.831 L 761.879 414.162 762.886 410.331 C 763.439 408.224, 764.199 403.692, 764.574 400.261 L 765.256 394.022 763.128 389.076 C 761.958 386.355, 761 382.858, 761 381.305 L 761 378.481 758.932 377.189 L 756.864 375.898 752.611 376.536 L 748.358 377.173 744.331 376.089 L 740.305 375.005 733.902 369.990 C 730.381 367.232, 725.180 363.004, 722.344 360.595 L 717.187 356.214 711.344 354.005 L 705.500 351.796 702.719 352.823 L 699.939 353.849 691.231 351.454 C 686.441 350.136, 681.092 348.287, 679.344 347.346 L 676.165 345.634 672.287 346.796 L 668.410 347.958 664.296 351.479 L 660.182 355 658.532 355 L 656.882 355 657.484 354.025 C 657.816 353.489, 658.281 350.114, 658.518 346.525 L 658.949 340 656.505 340 C 655.161 340, 652.135 339.049, 649.781 337.887 C 634.802 330.494, 627.822 328.578, 625.247 331.153 L 624.094 332.306 625.139 334.261 L 626.185 336.215 625.226 337.174 C 624.699 337.701, 622.782 338.366, 620.967 338.653 C 619.151 338.939, 616.555 339.901, 615.197 340.791 L 612.727 342.409 611.350 345.704 L 609.973 349 608.594 349 L 607.214 349 606.607 347.418 C 606.273 346.548, 606 344.802, 606 343.538 L 606 341.240 599.889 340.798 L 593.779 340.356 592.639 338.428 C 592.013 337.368, 591.275 335.720, 591 334.767 L 590.500 333.034 585.242 335.474 L 579.984 337.915 576.242 338.208 L 572.500 338.500 572.188 336.305 L 571.875 334.111 575.936 333.017 L 579.996 331.924 582.081 329.104 C 583.228 327.553, 586.459 324.535, 589.263 322.397 L 594.360 318.510 598.180 312.600 C 600.281 309.349, 601.999 305.972, 601.999 305.095 L 601.997 303.500 596.970 298.567 L 591.944 293.634 589.818 286.317 C 588.648 282.293, 587.314 279, 586.852 279 C 585.808 279, 580.015 286.899, 579.958 288.400 C 579.899 289.979, 573.915 296.476, 571.201 297.909 L 568.902 299.123 565.500 298 L 562.098 296.877 560.211 297.887 L 558.323 298.897 555.912 298.293 C 554.585 297.961, 552.612 297.084, 551.527 296.345 L 549.555 295 545.527 295.015 C 540.569 295.034, 539.502 295.708, 538.599 299.394 L 537.890 302.288 529.983 301.678 L 522.076 301.068 521.555 301.911 C 521.268 302.375, 519.064 303.250, 516.657 303.856 L 512.279 304.958 511.017 306.479 L 509.755 308 507.043 308 L 504.331 308 501.692 305.250 C 500.241 303.738, 498.249 301.747, 497.266 300.827 L 495.478 299.153 493.739 300.126 L 492 301.099 492 299.617 L 492 298.135 494 297.500 L 496 296.865 496 295.492 C 496 294.736, 495.550 293.840, 495 293.500 L 494 292.882 494 290.106 L 494 287.331 483.500 292.523 C 477.725 295.378, 473 297.538, 473 297.322 C 473 297.106, 472.127 297.397, 471.061 297.968 L 469.121 299.005 468.504 298.007 L 467.887 297.009 470.694 295.886 C 472.237 295.269, 475.075 293.912, 477 292.871 C 478.925 291.830, 483.939 289.327, 488.141 287.308 L 495.783 283.638 497.365 280.959 L 498.947 278.281 498.307 277.640 C 497.955 277.288, 496.811 277, 495.766 277 L 493.865 277 494.473 275.084 L 495.081 273.168 494.037 272.523 L 492.993 271.877 493.605 269.439 L 494.217 267 492.358 267.006 L 490.500 267.013 488.922 269.756 M 408.753 298.019 C 406.142 299.659, 403.430 301, 402.725 301 C 402.021 301, 400.361 301.760, 399.035 302.688 L 396.625 304.376 396.288 303.365 L 395.951 302.354 392.948 302.794 L 389.945 303.235 388.880 305.225 L 387.815 307.215 388.657 308.043 L 389.500 308.871 394 307.825 C 396.475 307.250, 400.427 305.928, 402.782 304.887 L 407.065 302.994 407.658 301.448 C 407.985 300.597, 409.875 298.798, 411.858 297.450 C 416.970 293.977, 414.457 294.437, 408.753 298.019 M 479 301.045 C 476.525 302.650, 474.218 303.971, 473.874 303.981 C 473.530 303.992, 470.605 305.201, 467.374 306.668 C 464.143 308.136, 461.008 309.435, 460.407 309.557 C 459.805 309.678, 457.372 311.002, 455 312.500 C 452.628 313.998, 450.195 315.329, 449.593 315.458 C 446.715 316.076, 443 318.058, 443 318.975 C 443 320.292, 445.689 320.311, 446.500 319 C 446.840 318.450, 448 318, 449.079 318 C 450.157 318, 452.901 316.825, 455.177 315.389 C 457.452 313.952, 459.805 312.704, 460.407 312.615 C 461.008 312.526, 463.694 311.227, 466.376 309.727 C 469.058 308.227, 471.850 307, 472.582 307 C 473.313 307, 476.202 305.650, 479 304 C 481.798 302.350, 484.504 301, 485.013 301 L 485.937 301 485.362 299.500 C 484.608 297.537, 484.296 297.612, 479 301.045 M 291.682 309.052 L 289.864 310.797 285.195 311.972 C 282.628 312.619, 280.202 313.673, 279.805 314.316 L 279.083 315.483 279.628 317.655 L 280.173 319.827 278.087 321.913 L 276 324 276 326.025 L 276 328.050 273.474 329.010 C 270.041 330.315, 269.709 331.703, 271.322 338.007 L 272.706 343.412 274.294 344.414 L 275.883 345.416 277.770 343.708 C 278.808 342.769, 280.243 342, 280.959 342 L 282.260 342 281.748 346.541 L 281.237 351.081 279.611 352.878 L 277.985 354.674 278.593 357.716 L 279.201 360.757 278.101 361.438 C 277.495 361.812, 277 362.541, 277 363.059 L 277 364 280.427 364 L 283.855 364 285.985 366.708 L 288.116 369.417 289.741 368.392 C 291.862 367.054, 292.730 365.405, 294.004 360.295 L 295.053 356.091 297.489 353.196 L 299.925 350.300 304.378 348.600 C 311.196 345.996, 320.087 340.938, 320.712 339.307 C 321.021 338.504, 322.336 337.442, 323.636 336.948 L 326 336.050 326.004 334.275 C 326.006 333.299, 326.853 331.113, 327.887 329.417 L 329.767 326.335 328.927 324.833 C 328.464 324.008, 326.378 322.148, 324.290 320.701 L 320.493 318.070 314.541 318.141 L 308.590 318.212 306.885 316.106 L 305.179 314 303.270 314 L 301.360 314 297.430 310.653 L 293.500 307.307 291.682 309.052 M 488.315 309.631 C 487.113 310.471, 485.538 311.247, 484.815 311.356 C 484.092 311.465, 481.025 312.936, 478 314.625 C 474.975 316.314, 471.012 318.279, 469.194 318.992 L 465.889 320.289 466.729 321.129 L 467.570 321.970 472.035 320.211 C 474.491 319.244, 478.075 317.587, 480 316.531 C 481.925 315.474, 483.950 314.526, 484.500 314.425 C 486.420 314.071, 493 309.795, 493 308.901 C 493 307.559, 490.788 307.903, 488.315 309.631 M 432.500 319.129 L 429.500 320.989 432.128 320.995 L 434.755 321 435.926 319.589 L 437.097 318.178 436.299 317.723 C 435.859 317.473, 434.150 318.106, 432.500 319.129 M 602.750 317.781 L 600 318.133 600 319.066 L 600 320 603.500 320 L 607 320 607 319.059 C 607 317.713, 605.889 317.379, 602.750 317.781 M 455.500 321.474 L 451.500 323.938 453.203 323.969 C 454.140 323.986, 456.052 323.478, 457.453 322.839 L 460 321.679 460 320.339 C 460 318.631, 460.195 318.582, 455.500 321.474 M 154 322.025 C 154 322.588, 155.125 323.477, 156.500 324 C 159.519 325.148, 159.556 325.444, 157 328 C 155.900 329.100, 155 330.724, 155 331.608 L 155 333.217 157.748 332.527 C 161.066 331.694, 160.696 332.061, 161.514 328.798 L 162.192 326.101 159.641 323.550 C 158.239 322.148, 156.395 321, 155.545 321 L 154 321 154 322.025 M 331.126 324.376 L 332.208 326.753 330.716 329.126 C 329.895 330.432, 328.688 333.188, 328.034 335.250 L 326.845 339 325.727 339 C 325.112 339, 323.460 340.082, 322.055 341.404 C 319.592 343.722, 309.987 349.039, 303.160 351.864 L 299.863 353.228 297.988 357.364 C 296.956 359.639, 295.850 362.749, 295.531 364.275 C 295.211 365.802, 294.061 367.939, 292.975 369.025 L 291 371 288.394 371 L 285.788 371 283.735 368.390 L 281.681 365.779 277.841 366.295 L 274 366.810 273.540 366.065 C 273.287 365.656, 273.954 363.691, 275.021 361.699 L 276.963 358.077 275.731 358.615 C 275.054 358.910, 273.067 361.112, 271.316 363.508 L 268.131 367.864 269.611 369.092 L 271.091 370.320 270.557 371.713 L 270.023 373.105 271.691 375.650 L 273.359 378.196 272.278 379.927 L 271.197 381.657 274.849 384.574 C 282.444 390.642, 287.042 394, 287.759 394.001 C 288.166 394.002, 289.817 396.364, 291.426 399.251 C 293.036 402.138, 296.775 408.053, 299.735 412.396 C 302.696 416.739, 306.498 423.039, 308.185 426.396 L 311.251 432.500 315.125 436.728 L 319 440.955 319 443.543 C 319 446.802, 320.425 449.534, 324.509 454.103 L 327.729 457.706 328.402 462.193 L 329.075 466.680 332.287 469.671 C 338.653 475.596, 358.244 485.891, 369.136 489.034 C 370.585 489.453, 375.415 492.348, 379.868 495.468 L 387.965 501.142 389.953 503.935 L 391.942 506.727 395.873 506.727 L 399.805 506.727 400.380 503.851 C 400.696 502.268, 402.540 498.496, 404.478 495.468 C 406.415 492.439, 408 489.788, 408 489.576 C 408 489.364, 405.562 487.815, 402.583 486.133 C 399.603 484.452, 396.882 482.618, 396.536 482.059 L 395.908 481.041 397.042 478.921 L 398.177 476.801 400.640 477.271 L 403.102 477.742 402.487 474.942 L 401.872 472.142 403.439 467.527 L 405.006 462.911 403.884 458.452 L 402.761 453.993 404.205 451.819 L 405.648 449.644 400.150 442.246 L 394.651 434.847 389.575 435.174 L 384.500 435.500 383.624 428.500 C 383.142 424.650, 382.618 421.352, 382.460 421.170 C 382.303 420.989, 381.122 421.528, 379.837 422.370 C 378.552 423.211, 375.700 424.162, 373.500 424.484 L 369.500 425.070 368.415 424.285 C 367.818 423.853, 366.868 422.656, 366.305 421.625 L 365.281 419.750 361.681 419.532 L 358.082 419.313 356.477 417.981 L 354.871 416.648 355.386 414.574 L 355.901 412.500 351.517 408.117 C 349.106 405.707, 346.594 402.433, 345.935 400.842 L 344.736 397.949 346.466 396.037 L 348.196 394.126 347.512 393.019 L 346.828 391.912 348.437 389.456 L 350.046 387 351.640 387 L 353.233 387 352.680 384.885 L 352.127 382.770 353.040 381.135 C 353.543 380.236, 354.420 377.629, 354.990 375.343 L 356.027 371.186 358.763 370.080 C 360.269 369.472, 363.001 367.874, 364.835 366.529 L 368.171 364.084 371.139 364.678 L 374.107 365.271 377.009 362.491 L 379.911 359.711 382.420 361.356 C 383.800 362.260, 385.395 363, 385.965 363 L 387 363 387 361.500 L 387 360 385.082 360 C 382.161 360, 380 358.932, 380 357.488 C 380 356.773, 380.981 354.352, 382.179 352.107 C 383.377 349.862, 384.165 347.905, 383.929 347.759 C 383.693 347.613, 382.121 346.530, 380.435 345.353 L 377.370 343.214 375.755 344.117 L 374.140 345.021 371.611 343.869 L 369.082 342.716 366.576 344.358 L 364.070 346 359.735 346 L 355.400 346 354.200 344.800 C 353.540 344.140, 353 342.790, 353 341.800 L 353 340 351.599 340 L 350.198 340 348.180 336.580 L 346.162 333.160 343.840 332.830 L 341.519 332.500 339.485 328.198 C 337.234 323.438, 335.601 322.038, 332.271 322.015 L 330.043 322 331.126 324.376 M 597 328.878 L 597 333.755 598.510 335.008 L 600.019 336.261 604.260 335.535 C 606.592 335.136, 609.850 334.739, 611.500 334.654 L 614.500 334.500 616.248 331 C 617.210 329.075, 617.998 326.712, 617.998 325.750 L 618 324 607.500 324 L 597 324 597 328.878 M 164.651 326.468 L 164.087 327.936 165.131 328.581 L 166.174 329.226 167.200 328.200 L 168.226 327.174 167.554 326.087 C 166.613 324.564, 165.316 324.734, 164.651 326.468 M 173.122 326.904 L 171.744 327.776 172.431 328.888 C 172.809 329.500, 173.766 330, 174.559 330 L 176 330 176 328 C 176 325.829, 175.262 325.548, 173.122 326.904 M 436.649 422.176 L 434.855 423.180 432.558 422.604 L 430.260 422.027 425.880 424.995 C 423.471 426.628, 420.761 427.972, 419.857 427.982 L 418.214 428 417.688 429.371 L 417.162 430.743 414.555 431.397 C 413.122 431.757, 411.020 432.980, 409.884 434.116 L 407.819 436.181 403.089 435.840 L 398.358 435.500 401.772 440.248 C 403.649 442.860, 405.591 445.247, 406.087 445.554 C 406.583 445.860, 407.429 446.932, 407.966 447.936 L 408.942 449.761 407.109 451.875 L 405.275 453.989 406.344 457.995 L 407.413 462 406.352 465.750 C 405.769 467.813, 405.172 469.950, 405.027 470.500 C 404.882 471.050, 404.816 473.762, 404.882 476.527 L 405 481.554 408 484.839 C 411.293 488.444, 411.700 490.174, 409.654 491.872 C 408.914 492.486, 407.470 494.848, 406.445 497.122 L 404.581 501.255 407.155 503.377 L 409.728 505.500 410.324 509.393 L 410.921 513.285 414.555 516.614 L 418.189 519.942 417.844 525.246 L 417.500 530.549 419.709 533.357 C 420.924 534.902, 422.845 538.716, 423.977 541.833 C 425.109 544.950, 426.900 549.075, 427.956 551 L 429.876 554.500 432.740 554.799 L 435.604 555.097 439.744 550.549 L 443.883 546 447.383 546 L 450.882 546 451.500 547 L 452.118 548 456.607 548 L 461.095 548 463.379 550.464 L 465.663 552.929 467.362 549.366 L 469.061 545.803 475.855 546.485 L 482.648 547.168 483.896 539.834 C 484.582 535.800, 485.914 530.475, 486.855 528 L 488.565 523.500 491.257 522.208 C 492.737 521.497, 497.517 520.288, 501.878 519.522 L 509.807 518.127 515.354 518.339 L 520.901 518.551 523.914 520.778 L 526.927 523.006 527.872 521.239 C 528.392 520.267, 528.774 518.353, 528.720 516.986 C 528.667 515.619, 528.966 512.626, 529.385 510.336 L 530.147 506.172 524.573 502.054 L 519 497.937 519 494.488 L 519 491.038 516.446 490.397 C 515.041 490.044, 511.645 489.972, 508.900 490.236 L 503.908 490.715 501.454 488.785 L 499 486.855 499 483.049 L 499 479.244 496.750 477.709 L 494.500 476.174 496.377 474.758 L 498.253 473.342 497.127 471.237 C 496.507 470.079, 496 468.227, 496 467.122 L 496 465.113 493.777 463.557 L 491.555 462 485.713 462 L 479.871 462 477.347 459 L 474.822 456 473.161 455.996 C 472.247 455.993, 469.475 454.645, 467 453 L 462.500 450.009 457.385 450.004 L 452.270 450 449.823 448.076 C 448.478 447.017, 446.168 444.407, 444.690 442.275 L 442.004 438.398 440.223 429.785 L 438.443 421.172 436.649 422.176 M 402.297 506.023 L 401.174 509 398.638 509 L 396.102 509 397.613 512.616 C 398.444 514.605, 400.221 520.558, 401.562 525.843 L 404 535.454 404 547.620 L 404 559.786 402.327 560.428 L 400.655 561.070 402.827 562.592 L 405 564.113 405 569.022 L 405 573.930 406.571 578.558 L 408.142 583.185 406.457 585.047 L 404.773 586.909 405.706 589.704 C 406.220 591.242, 406.750 594.559, 406.885 597.076 L 407.130 601.652 405.525 610.218 L 403.919 618.784 406.047 622.865 L 408.174 626.946 407.176 631.625 L 406.178 636.304 407.496 639.402 C 408.221 641.106, 409.977 645.247, 411.398 648.604 L 413.981 654.708 415.168 662.339 L 416.354 669.970 415.034 672.436 L 413.715 674.902 414.310 679.246 L 414.905 683.589 413.497 687.545 L 412.088 691.500 412.044 699.191 L 412 706.882 411 707.500 C 409.359 708.514, 409.736 709.305, 416.047 718.086 L 422.094 726.500 421.661 729 C 421.423 730.375, 420.633 732.951, 419.904 734.725 L 418.580 737.950 419.924 741.725 L 421.267 745.500 424.384 748.153 L 427.500 750.805 428.500 749.996 C 429.050 749.551, 431.199 749.042, 433.276 748.866 L 437.052 748.546 438.385 751.116 C 439.118 752.529, 440.021 755.297, 440.390 757.265 L 441.061 760.844 439.966 761.521 L 438.870 762.199 440.459 763.955 L 442.048 765.711 441.427 767.330 L 440.806 768.949 442.403 770.546 L 444 772.143 444 774.571 L 444 777 445.839 777 L 447.679 777 448.729 779.305 L 449.779 781.610 448.425 784.055 C 447.680 785.400, 447.055 786.795, 447.035 787.156 L 447 787.813 448.988 787.293 L 450.976 786.773 451.655 788.542 L 452.334 790.312 449.938 792.252 L 447.541 794.192 447.846 797.096 L 448.151 800 447.122 800 C 446.557 800, 444.961 799.484, 443.577 798.853 L 441.059 797.706 439.482 799.015 L 437.905 800.323 439.203 801.146 C 439.916 801.599, 442.161 801.976, 444.191 801.985 L 447.882 802 448.470 802.951 C 448.793 803.474, 449.116 805.475, 449.189 807.397 C 449.261 809.320, 449.586 810.864, 449.910 810.828 C 450.235 810.792, 450.950 810.890, 451.500 811.044 C 452.050 811.198, 454.075 811.364, 456 811.412 L 459.500 811.500 459.183 814.439 L 458.865 817.378 457.495 818.439 L 456.126 819.500 455.451 823.500 L 454.776 827.500 456.244 825.588 L 457.711 823.675 459.355 824.306 L 461 824.937 461 826.392 L 461 827.847 464 826.350 L 467 824.854 467 820.486 L 467 816.118 465.904 815.441 L 464.809 814.764 465.413 811.132 C 465.746 809.134, 465.993 805.937, 465.962 804.028 L 465.907 800.555 464.580 799.028 C 463.850 798.187, 462.693 795.759, 462.010 793.631 L 460.766 789.762 461.978 789.013 L 463.190 788.265 460.351 787.552 C 456.887 786.682, 455 785.211, 455 783.378 L 455 782 458.573 782 L 462.147 782 461.814 780.250 L 461.481 778.500 457.490 778 L 453.500 777.500 453.190 775.323 C 453.019 774.125, 452.232 772.607, 451.440 771.950 C 450.648 771.293, 450 769.941, 450 768.946 L 450 767.136 447.076 765.054 L 444.153 762.973 443.515 760.070 L 442.878 757.168 444.077 755.249 L 445.275 753.330 441.638 747.928 L 438 742.527 438 738.486 L 438 734.445 436.440 732.217 L 434.879 729.989 435.562 725.245 L 436.245 720.500 437.683 718.854 L 439.122 717.208 436.195 713.854 C 434.586 712.009, 432.309 708.605, 431.135 706.290 L 429 702.080 429 699.327 L 429 696.575 431.689 694.431 L 434.379 692.286 432.273 687.421 L 430.167 682.556 431.084 680.844 C 431.588 679.902, 432 677.752, 432 676.066 L 432 673 432.937 673 L 433.874 673 433.284 669.250 L 432.693 665.500 428.805 662.137 L 424.917 658.773 421.992 652.321 C 420.383 648.772, 418.816 644.436, 418.510 642.685 L 417.954 639.500 418.794 636.500 L 419.635 633.500 421.817 633.180 L 424 632.861 424 631.482 C 424 630.724, 422.875 628.889, 421.500 627.405 L 419 624.708 419 621.354 L 419 618 419.912 618 L 420.824 618 421.499 614.008 C 421.870 611.812, 423.269 607.744, 424.608 604.968 L 427.043 599.921 428.521 599.353 L 430 598.786 430 596.952 C 430 595.943, 429.550 594.840, 429 594.500 L 428 593.882 428 591.338 L 428 588.795 425.347 584.075 L 422.694 579.356 423.383 576.612 L 424.071 573.868 427.566 572.408 L 431.061 570.948 433.027 567.724 L 434.993 564.500 434.996 560.691 L 435 556.882 433.943 557.535 L 432.886 558.188 430.516 557.593 L 428.146 556.999 425.721 551.749 C 424.387 548.862, 422.249 544.025, 420.970 541 L 418.645 535.500 416.143 533.320 L 413.642 531.139 414.790 527.308 L 415.937 523.477 415.384 521.362 L 414.832 519.248 412.304 517.895 L 409.777 516.542 408.888 514.206 C 408.400 512.921, 408 510.853, 408 509.609 L 408 507.349 405.710 505.198 L 403.421 503.047 402.297 506.023 M 507.340 521.017 C 503.402 521.436, 498.002 522.507, 495.340 523.396 L 490.500 525.013 489.252 527.702 C 488.565 529.181, 487.267 534.813, 486.367 540.217 L 484.730 550.044 486.575 552.083 C 489.885 555.740, 501.383 563.612, 506.500 565.723 C 509.250 566.858, 513.478 568.110, 515.895 568.506 L 520.290 569.225 528.395 572.981 L 536.500 576.737 538.718 579.148 L 540.935 581.560 539.606 586.530 C 538.874 589.263, 537.539 593.242, 536.638 595.372 C 535.737 597.502, 535 599.414, 535 599.622 C 535 599.830, 536.462 600.008, 538.250 600.017 C 540.038 600.027, 544.861 600.907, 548.969 601.974 L 556.438 603.913 558.065 602.441 L 559.692 600.969 561.596 601.234 L 563.500 601.500 567.894 596.731 L 572.289 591.963 572.104 589.231 C 572.002 587.729, 571.824 582.699, 571.709 578.053 L 571.500 569.607 567.690 568.807 C 565.595 568.366, 562.978 567.523, 561.875 566.933 L 559.869 565.859 557.870 561.180 C 556.771 558.606, 554.691 555.263, 553.249 553.750 L 550.626 551 548.935 551 C 548.006 551, 546.695 551.663, 546.022 552.474 L 544.799 553.947 541.949 552.474 C 540.382 551.663, 538.238 551, 537.185 551 C 536.131 551, 534.084 550.067, 532.635 548.927 L 530 546.855 530 543.586 C 530 541.789, 529.356 538.178, 528.569 535.562 L 527.137 530.806 527.666 529.429 L 528.194 528.051 526.802 526.776 C 526.036 526.074, 524.305 524.536, 522.955 523.358 L 520.500 521.216 517.500 520.735 C 515.850 520.470, 511.278 520.597, 507.340 521.017 M 442.084 551.414 L 438.775 554.827 439.447 555.914 L 440.118 557 438.480 557 L 436.841 557 437.481 559.914 L 438.121 562.828 435.600 567.802 L 433.079 572.777 430.175 573.789 L 427.271 574.801 426.745 577.556 L 426.218 580.310 428.105 583.405 L 429.993 586.500 430.032 589 C 430.053 590.375, 430.714 592.625, 431.500 594 C 432.286 595.375, 432.945 597.297, 432.965 598.271 L 433 600.043 430.750 601.080 L 428.500 602.118 426.315 607.309 C 425.114 610.164, 423.842 613.957, 423.488 615.739 C 423.135 617.520, 422.431 619.234, 421.923 619.548 C 420.310 620.545, 420.921 623.118, 423.500 626.182 L 426 629.153 426 631.598 L 426 634.043 423.500 635.182 L 421 636.321 421 640.249 L 421 644.177 424.051 650.768 L 427.102 657.360 430.801 660.842 L 434.500 664.323 435.625 669.241 L 436.749 674.159 435.345 674.698 L 433.940 675.237 434.518 677.056 L 435.095 678.875 433.925 680.749 L 432.754 682.624 434.377 685.762 L 436 688.901 436 691.927 L 436 694.954 433.508 696.586 L 431.017 698.219 431.637 700.859 C 432.396 704.093, 435.498 709.356, 438.649 712.756 C 440.982 715.273, 441.658 718.009, 440.285 719.382 C 439.892 719.775, 439.059 722.107, 438.436 724.564 L 437.302 729.030 438.619 730.765 L 439.936 732.500 439.968 737.003 L 440 741.506 443.500 746.429 L 447 751.352 447 754.176 L 447 757 446.025 757 L 445.050 757 446.047 759.624 C 446.596 761.067, 448.159 763.124, 449.522 764.196 L 452 766.145 452 768.073 L 452 770 453.500 770 L 455 770 455.152 771.250 C 455.236 771.938, 455.361 773.175, 455.430 774 L 455.556 775.500 457.844 775.250 C 459.102 775.113, 461.002 775.466, 462.066 776.035 L 464 777.070 464 780.535 L 464 784 461.250 784.039 L 458.500 784.078 461.700 785.470 L 464.900 786.861 464.740 790.870 L 464.580 794.878 466.290 796.768 L 468 798.657 468 800.782 C 468 801.950, 468.542 804.095, 469.204 805.549 L 470.408 808.192 468.704 809.146 C 466.451 810.407, 466.554 812.163, 469.069 815.360 L 471.138 817.991 470.380 820.245 C 469.963 821.485, 469.506 823.174, 469.363 823.999 C 469.221 824.823, 468.153 826.267, 466.992 827.208 L 464.880 828.918 467.170 832.016 C 470.123 836.010, 475.363 839.996, 477.683 840.014 C 478.682 840.021, 480.506 840.297, 481.736 840.627 L 483.973 841.226 486.233 845.751 C 487.476 848.240, 489.394 850.860, 490.496 851.573 L 492.500 852.868 498.500 853.524 C 501.800 853.885, 507.425 854.283, 511 854.409 C 514.575 854.535, 518.850 855.019, 520.500 855.485 L 523.500 856.332 522.192 854.744 L 520.885 853.156 516.942 852.490 L 513 851.824 513 850.772 C 513 850.194, 513.788 849.072, 514.750 848.279 L 516.500 846.837 514.720 847.399 L 512.939 847.961 511.775 845.406 L 510.611 842.852 511.750 841.028 L 512.889 839.204 510.945 838.696 L 509 838.187 509 835.785 C 509 834.463, 509.612 832.546, 510.360 831.523 L 511.719 829.664 514.764 831.832 C 516.439 833.024, 518.334 834, 518.977 834 L 520.145 834 518.073 831.365 C 515.487 828.079, 515.462 826.288, 517.961 823.605 C 519.040 822.447, 521.470 819.813, 523.361 817.750 L 526.800 814 525.400 814 C 523.529 814, 523.632 812.990, 525.653 811.512 L 527.306 810.303 526.594 809.152 L 525.882 808 520.593 808 L 515.304 808 509.652 802.074 L 504 796.148 504 793.639 C 504 792.259, 504.443 789.964, 504.985 788.539 L 505.970 785.949 507.735 785.390 C 508.706 785.082, 511.175 784.131, 513.223 783.276 L 516.945 781.721 516.409 780.853 L 515.873 779.986 517.437 779.386 L 519 778.786 518.968 776.643 C 518.951 775.464, 518.276 773.626, 517.468 772.559 C 515.524 769.989, 515.614 768.013, 517.750 766.392 L 519.500 765.064 517.785 765.032 L 516.070 765 514.932 762.873 L 513.794 760.746 515.034 759.979 L 516.275 759.212 514.214 756.999 C 513.080 755.782, 510.503 752.114, 508.487 748.848 L 504.821 742.909 505.422 741.343 L 506.023 739.776 509.262 740.364 C 515.881 741.565, 530.334 742.999, 530.829 742.504 C 531.111 742.223, 530.364 740.952, 529.171 739.682 C 526.559 736.902, 526.501 736.209, 528.681 733.800 L 530.362 731.942 528.263 730.472 C 525.701 728.677, 522 722.863, 522 720.632 L 522 719 523.750 719.015 C 524.712 719.023, 527.525 719.741, 530 720.612 L 534.500 722.195 540.843 721.560 C 549.349 720.709, 562.631 717.472, 565.598 715.528 L 568 713.954 568 711.536 L 568 709.118 569.083 708.449 C 569.678 708.081, 571.020 705.785, 572.065 703.348 L 573.965 698.916 572.808 697.064 C 572.171 696.045, 570.301 694.601, 568.651 693.855 C 565.527 692.444, 564.813 691.460, 563.366 686.565 L 562.497 683.629 556.695 680.239 L 550.893 676.848 549.946 674.359 C 549.426 672.990, 549 670.351, 549 668.494 L 549 665.118 550 664.500 C 551.457 663.600, 551.166 659.803, 549.468 657.559 L 548 655.618 548 645.874 L 548 636.130 549.028 633.426 C 550.105 630.595, 552.783 626.878, 557.981 621 C 559.683 619.075, 562.481 615.783, 564.198 613.686 C 566.647 610.694, 573.776 604.840, 582.878 598.347 C 583.086 598.198, 582.716 595.928, 582.054 593.302 C 580.867 588.586, 579.690 587.045, 577.250 587.015 L 576 587 576 588.656 C 576 590.331, 572.887 594.861, 568.434 599.665 C 567.096 601.110, 566 602.628, 566 603.039 C 566 603.450, 565.268 604.067, 564.373 604.410 L 562.747 605.035 561.373 603.895 L 560 602.755 560 604.271 L 560 605.786 558.618 606.317 L 557.235 606.847 552.914 605.358 C 550.537 604.539, 545.196 603.561, 541.046 603.185 L 533.500 602.500 533.648 599 C 533.730 597.075, 534.821 592.638, 536.074 589.140 L 538.352 582.781 537.347 581.189 C 536.795 580.313, 533.004 577.912, 528.922 575.853 L 521.500 572.109 516 571 C 504.482 568.676, 496.598 564.259, 485.310 553.806 L 480.120 549 478.185 549 C 477.121 549, 474.942 548.738, 473.344 548.419 L 470.437 547.837 469.013 551.467 C 468.230 553.463, 466.933 555.637, 466.132 556.298 L 464.675 557.500 464.190 556.057 C 463.923 555.263, 462.633 553.543, 461.324 552.233 L 458.944 549.853 455.931 550.515 L 452.919 551.177 450.495 549.588 C 447.021 547.313, 445.802 547.577, 442.084 551.414 M 553.756 633.658 L 551.012 635.103 550.424 637.448 C 550.100 638.738, 550.037 643.451, 550.285 647.921 L 550.734 656.049 552.367 657.853 C 554.372 660.069, 554.384 660.740, 552.483 664.385 L 550.979 667.270 552.167 668.701 C 552.820 669.488, 554.655 670.804, 556.244 671.626 L 559.134 673.121 560.817 672.737 L 562.500 672.352 569 675.594 L 575.500 678.836 584 678.393 C 588.675 678.150, 593.448 677.745, 594.606 677.493 L 596.712 677.034 599.281 673.151 L 601.851 669.267 600.463 666.591 C 599.700 665.120, 598.800 662.451, 598.464 660.662 L 597.854 657.409 592.180 652.954 C 589.059 650.504, 583.079 646.682, 578.892 644.461 L 571.279 640.421 569.788 641.362 L 568.298 642.302 563.333 637.151 C 557.951 631.568, 557.816 631.519, 553.756 633.658 M 424 756.061 C 424 758.340, 427.439 765.535, 428.986 766.491 L 430 767.118 430 765.282 C 430 764.271, 429.286 762.426, 428.413 761.180 L 426.826 758.914 427.905 757.614 L 428.984 756.314 426.492 755.178 L 424 754.043 424 756.061 M 522.250 756.639 L 521 757.167 521 759.928 L 521 762.690 522.928 764.435 L 524.857 766.180 526.926 765.523 L 528.995 764.867 529.586 762.512 C 529.911 761.218, 530.021 759.335, 529.830 758.329 L 529.484 756.500 526.492 756.306 C 524.846 756.199, 522.938 756.349, 522.250 756.639 M 523.556 758.910 C 523.247 759.410, 523.277 760.557, 523.623 761.459 L 524.252 763.098 525.876 762.789 L 527.500 762.480 527.820 760.240 L 528.139 758 526.129 758 C 525.023 758, 523.865 758.409, 523.556 758.910 M 451 827.492 C 451 828.321, 450.550 829, 450 829 C 449.450 829, 449 829.675, 449 830.500 C 449 832.418, 450.404 832.423, 451.991 830.511 L 453.227 829.022 454.113 829.570 L 455 830.118 455 829.300 C 455 828.849, 454.100 827.919, 453 827.232 L 451 825.983 451 827.492 M 462.032 830.691 C 462.014 831.346, 462.496 832.188, 463.102 832.563 C 463.708 832.938, 464.839 834.764, 465.615 836.622 L 467.027 840 469.045 840 L 471.063 840 471.711 841.690 L 472.360 843.380 471.174 843.775 L 469.988 844.171 470.526 845.042 L 471.064 845.913 472.330 845.427 L 473.596 844.941 475.982 847.481 L 478.369 850.021 479.139 848.774 L 479.910 847.528 482.747 848.598 L 485.584 849.669 484.042 846.367 L 482.500 843.065 479.482 843.033 L 476.464 843 472.482 840.302 C 468.910 837.882, 467.514 836.480, 463.282 831.060 L 462.064 829.500 462.032 830.691 M 603.251 847.723 L 600.003 848.127 599.141 849.813 C 598.667 850.741, 598.230 853.188, 598.170 855.250 L 598.061 859 599.937 859 L 601.812 859 605.406 853.998 C 609.189 848.733, 609.819 846.895, 607.750 847.160 C 607.063 847.248, 605.038 847.502, 603.251 847.723 M 610.885 847.750 C 610.822 848.163, 610.843 849.248, 610.933 850.161 C 611.022 851.075, 610.624 852.114, 610.048 852.470 C 609.472 852.827, 609 854.006, 609 855.090 L 609 857.063 610.537 857.653 L 612.074 858.243 613.787 856.705 L 615.500 855.167 618.500 854.834 L 621.500 854.500 621.500 852 L 621.500 849.500 618.500 849.173 C 616.850 848.993, 615.072 848.431, 614.550 847.923 C 613.408 846.813, 611.046 846.702, 610.885 847.750 M 489.768 855.554 L 491.500 857.937 493 858.001 C 493.825 858.036, 496.975 858.921, 500 859.967 L 505.500 861.870 510.265 860.315 C 512.886 859.460, 515.233 858.432, 515.481 858.031 L 515.932 857.302 504.853 856.668 L 493.774 856.034 490.905 854.603 L 488.036 853.171 489.768 855.554 M 516.606 862.397 L 513.711 864.805 514.365 866.509 L 515.019 868.212 517.430 867.607 C 518.756 867.274, 520.540 867.270, 521.395 867.598 L 522.949 868.194 521.474 869.669 C 518.729 872.414, 520.132 874.155, 526.500 875.902 C 528.700 876.506, 531.175 877.492, 532 878.094 L 533.500 879.189 531.500 878.412 C 530.400 877.985, 526.728 877.553, 523.341 877.452 L 517.182 877.269 515.841 878.099 L 514.500 878.928 516.109 880.537 C 518.445 882.874, 524.248 883.949, 534.667 883.976 L 543.833 884 544.218 885.155 L 544.603 886.310 548.911 887.582 L 553.218 888.853 554.609 888.320 L 556 887.786 556 886.254 L 556 884.721 561.113 885.327 L 566.226 885.933 569.613 884.517 C 575.414 882.093, 574.118 880.798, 564.594 879.499 L 559.688 878.831 551.594 875.027 C 547.142 872.935, 541.293 870.245, 538.595 869.049 L 533.690 866.875 531.864 864.554 L 530.038 862.233 527.269 861.677 C 525.746 861.371, 523.375 860.867, 522 860.555 L 519.500 859.989 516.606 862.397 M 518.906 863.614 L 517.755 865 519.943 865 C 524.754 865, 528.081 868.988, 524.437 870.386 L 522.873 870.986 523.411 871.856 C 523.707 872.334, 526.004 873.301, 528.517 874.005 L 533.085 875.284 534.514 877.324 L 535.943 879.364 534.849 880.682 L 533.755 882 535.878 882 L 538 882 538 880.934 C 538 879.263, 535.973 875.734, 533.441 873 C 532.168 871.625, 530.441 869.172, 529.602 867.548 L 528.078 864.596 524.067 863.412 L 520.056 862.228 518.906 863.614 M 478.104 863.914 L 476.709 864.798 477.323 866.399 L 477.937 868 479.719 867.968 C 480.698 867.951, 482.354 867.290, 483.398 866.500 L 485.296 865.063 482.583 864.032 C 479.374 862.811, 479.827 862.823, 478.104 863.914 M 506.250 868.288 C 505.012 868.848, 504 869.687, 504 870.153 L 504 871 507 871 C 510.043 871, 510.560 870.395, 509.235 868.386 L 508.500 867.271 506.250 868.288 M 490 869.833 C 490 871.242, 491.126 871.889, 492.598 871.324 C 493.369 871.028, 494 870.384, 494 869.893 L 494 869 492 869 C 490.900 869, 490 869.375, 490 869.833 M 536.249 872.750 C 537.692 874.263, 539.317 876.675, 539.859 878.112 L 540.845 880.724 545.366 881.862 L 549.886 883 558.193 882.881 L 566.500 882.762 562 881.624 C 559.525 880.998, 556.547 879.942, 555.383 879.279 C 552.905 877.866, 534.896 870, 534.140 870 C 533.857 870, 534.806 871.237, 536.249 872.750 M 492.500 873 L 491.882 874 493.319 874 C 494.109 874, 495.315 874.675, 496 875.500 L 497.245 877 500.122 877 L 503 877 503 875.700 C 503 874.985, 502.460 873.860, 501.800 873.200 L 500.600 872 496.859 872 L 493.118 872 492.500 873 M 523 880 L 520.500 880.801 525.500 880.830 L 530.500 880.859 528.500 880 C 526.128 878.981, 526.183 878.981, 523 880" stroke="none" fill="#ffffff" fill-rule="evenodd"/></svg>
        </g>
      </svg>
    